G04*
G04 #@! TF.GenerationSoftware,Altium Limited,Altium Designer,26.10.1 (5)*
G04*
G04 Layer_Physical_Order=1*
G04 Layer_Color=255*
G04 Board_Origin=37281496|37827952*
%FSLAX25Y25*%
%MOIN*%
G70*
G04*
G04 #@! TF.SameCoordinates,9B41FC50-93BA-4191-A4F0-A01DB396449E*
G04*
G04*
G04 #@! TF.FilePolarity,Positive*
G04*
G01*
G75*
%ADD11C,0.01000*%
%ADD15R,0.03937X0.02362*%
G04:AMPARAMS|DCode=16|XSize=21.26mil|YSize=23.62mil|CornerRadius=5.63mil|HoleSize=0mil|Usage=FLASHONLY|Rotation=180.000|XOffset=0mil|YOffset=0mil|HoleType=Round|Shape=RoundedRectangle|*
%AMROUNDEDRECTD16*
21,1,0.02126,0.01235,0,0,180.0*
21,1,0.00999,0.02362,0,0,180.0*
1,1,0.01127,-0.00500,0.00618*
1,1,0.01127,0.00500,0.00618*
1,1,0.01127,0.00500,-0.00618*
1,1,0.01127,-0.00500,-0.00618*
%
%ADD16ROUNDEDRECTD16*%
%ADD17R,0.03543X0.05512*%
%ADD18R,0.07874X0.04724*%
G04:AMPARAMS|DCode=19|XSize=21.26mil|YSize=23.62mil|CornerRadius=5.63mil|HoleSize=0mil|Usage=FLASHONLY|Rotation=270.000|XOffset=0mil|YOffset=0mil|HoleType=Round|Shape=RoundedRectangle|*
%AMROUNDEDRECTD19*
21,1,0.02126,0.01235,0,0,270.0*
21,1,0.00999,0.02362,0,0,270.0*
1,1,0.01127,-0.00618,-0.00500*
1,1,0.01127,-0.00618,0.00500*
1,1,0.01127,0.00618,0.00500*
1,1,0.01127,0.00618,-0.00500*
%
%ADD19ROUNDEDRECTD19*%
%ADD20R,0.05433X0.04331*%
%ADD21R,0.05315X0.01575*%
%ADD22C,0.00984*%
%ADD23R,0.04882X0.08740*%
%ADD24R,0.01968X0.02362*%
%ADD25R,0.02362X0.01968*%
%ADD26R,0.06693X0.03347*%
%ADD33C,0.04362*%
%ADD34R,0.04362X0.04362*%
%ADD35C,0.01575*%
%ADD36C,0.00800*%
%ADD37C,0.01400*%
%ADD38C,0.01500*%
D11*
X1574Y40033D02*
Y41132D01*
X3707Y37900D02*
Y37984D01*
X3149Y38542D02*
X3707Y37984D01*
X3065Y38542D02*
X3149D01*
X1574Y40033D02*
X3065Y38542D01*
X5545Y30464D02*
X5585Y30504D01*
X2457Y30357D02*
X2593Y30493D01*
X-905Y30314D02*
X-726Y30493D01*
X-16929Y35579D02*
X-16053Y34702D01*
X-24923Y43700D02*
X-24478D01*
X1306Y41400D02*
X1574Y41132D01*
X-8114Y34702D02*
X-3905Y30493D01*
X-16053Y34702D02*
X-8114D01*
X5585Y30504D02*
X8885D01*
X2593Y30493D02*
X5545D01*
X8885Y30504D02*
X8895Y30514D01*
X-726Y30493D02*
X2400D01*
X-3905D02*
X-905D01*
X-18898Y47638D02*
X-17167Y45907D01*
X-14600D01*
X-16900Y34702D02*
X-16053D01*
X-29528Y46457D02*
X-29458Y46388D01*
X-24478Y43700D02*
X-21621Y40843D01*
Y39720D02*
Y40843D01*
Y39720D02*
X-17480Y35579D01*
X-22835Y50276D02*
X-18898D01*
X-20268Y46968D02*
X-20000Y46700D01*
X-19835D01*
X-18898Y47638D01*
X-24923Y44077D02*
Y44145D01*
X-24443Y64156D02*
X-24175Y64424D01*
X-21679D01*
X-21260Y64842D01*
X-43300Y81441D02*
Y81819D01*
X-44882Y68898D02*
Y79859D01*
X-43300Y81441D01*
X-3632Y36344D02*
X-1693Y34404D01*
X-3632Y36344D02*
Y37232D01*
X-3900Y37500D02*
X-3632Y37232D01*
X-1693Y34252D02*
Y34404D01*
X-30576Y60891D02*
X-28009D01*
X-30977Y60756D02*
X-30709Y61024D01*
X-33270Y60756D02*
X-30977D01*
X-35342Y58683D02*
X-33270Y60756D01*
X-25780Y58661D02*
X-22953D01*
X-30709Y61024D02*
X-30576Y60891D01*
X-28009D02*
X-25780Y58661D01*
X-35366Y58213D02*
X-35342Y58236D01*
Y58683D01*
X39764Y50787D02*
Y53937D01*
Y48031D02*
X39764Y48031D01*
X39764Y48031D02*
Y50787D01*
X35945Y70591D02*
X39370Y74016D01*
X35945Y57756D02*
X37898Y55802D01*
X33272D02*
X37898D01*
X37008Y48031D02*
X39764Y50787D01*
X37898Y55802D02*
X39764Y53937D01*
X-800Y73359D02*
Y74699D01*
Y73359D02*
X-276Y72835D01*
X-3092Y76992D02*
X-800Y74699D01*
X35945Y63386D02*
Y70591D01*
X-6031Y79285D02*
X-3738Y76992D01*
X-3092D01*
X-6031Y79285D02*
Y79562D01*
X35945Y57756D02*
Y63386D01*
X27359Y51381D02*
X29528Y49213D01*
X25291Y51381D02*
X27359D01*
X-2440Y55905D02*
X-2362D01*
X-4310Y54035D02*
X-2440Y55905D01*
X24610Y52062D02*
X25291Y51381D01*
X37008Y45074D02*
Y48031D01*
X29528Y45074D02*
X30113Y44488D01*
X29528Y45074D02*
Y49213D01*
X36422Y44488D02*
X37008Y45074D01*
X30113Y44488D02*
X36422D01*
X-7606Y80441D02*
X-6910D01*
X-6031Y79562D01*
X-7874Y80709D02*
X-7606Y80441D01*
X-14055Y64719D02*
Y67323D01*
X-19592Y64474D02*
X-18228Y63110D01*
X-15748D01*
X-20892Y64474D02*
X-19592D01*
X-15664Y63110D02*
X-14055Y64719D01*
X-21260Y64842D02*
X-20892Y64474D01*
X-41587Y63331D02*
Y65602D01*
X-44882Y68898D02*
X-41587Y65602D01*
X-39921Y61665D02*
X-39370D01*
X-38819D01*
X-41587Y63331D02*
X-39921Y61665D01*
X-38819D02*
X-35366Y58213D01*
X-8563Y54035D02*
X-4310D01*
X-18898Y50276D02*
X-18898Y50276D01*
X-12992Y14961D02*
X-3150Y24803D01*
X-12992Y10039D02*
Y14961D01*
X-17480Y35579D02*
X-16929D01*
X-29528Y49606D02*
Y51181D01*
X-35366Y54294D02*
Y58213D01*
Y54294D02*
X-33810Y52737D01*
X-31084D02*
X-29528Y51181D01*
X-33810Y52737D02*
X-31084D01*
X-18898Y47638D02*
Y50276D01*
X-25984Y36654D02*
Y41339D01*
X-27953Y43307D02*
X-25984Y41339D01*
X-29921Y43307D02*
X-27953D01*
X-22835Y53661D02*
X-18898D01*
X-18814D01*
X-18256Y54220D02*
Y54303D01*
X-18814Y53661D02*
X-18256Y54220D01*
Y54303D02*
X-17483Y55076D01*
X-13428D02*
X-12197Y56307D01*
X-17483Y55076D02*
X-13428D01*
X-12197Y56307D02*
X-8850D01*
X-36018Y78538D02*
Y94309D01*
X-33071Y97255D01*
X-24803Y67323D02*
X-23898Y68228D01*
X-33071Y97255D02*
Y103150D01*
X-36018Y78538D02*
X-24803Y67323D01*
X-21260Y68228D02*
X-21142D01*
X-21107D01*
X-20202Y67323D01*
X-17441D01*
X-23898Y68228D02*
X-21260D01*
X-21142D02*
X-16535Y72835D01*
X-9449D01*
X725Y62267D02*
Y68048D01*
X28346Y63386D02*
X32559D01*
X32484Y48322D02*
X33272D01*
X31803Y49003D02*
X32484Y48322D01*
X32421Y63524D02*
Y68366D01*
Y63524D02*
X32559Y63386D01*
X-3661Y72835D02*
X-3661Y72835D01*
X-9449Y72835D02*
X-3661D01*
X725Y68048D02*
X787Y68110D01*
X32283Y68504D02*
X32421Y68366D01*
X662Y62205D02*
X725Y62267D01*
X-8276Y56882D02*
X-5569D01*
X-8850Y56307D02*
X-8276Y56882D01*
X-2881Y58661D02*
X662Y62205D01*
X-3790Y58661D02*
X-2881D01*
X-5569Y56882D02*
X-3790Y58661D01*
X-24778Y53569D02*
X-23107D01*
X-26772Y51575D02*
X-24778Y53569D01*
X-23107D02*
X-23042Y53633D01*
X-26772Y49606D02*
Y51575D01*
X28346Y54154D02*
Y63386D01*
Y54154D02*
X31803Y50697D01*
Y49003D02*
Y50697D01*
X-20283Y43118D02*
X-18520D01*
X-16900Y41498D01*
X-26772Y49606D02*
X-20283Y43118D01*
X-30709Y56477D02*
X-30425Y56193D01*
X-21687D01*
X-20091Y57789D01*
Y58138D01*
X-19567Y58661D01*
X-14364Y57374D02*
X-12584Y59153D01*
X-19567Y58578D02*
X-19009Y58019D01*
X-19567Y58578D02*
Y58661D01*
X-12584Y59153D02*
X-8563D01*
X-18244Y57374D02*
X-14364D01*
X-18890Y58019D02*
X-18244Y57374D01*
X-19009Y58019D02*
X-18890D01*
X13281Y37900D02*
X18504Y32677D01*
X7093Y37900D02*
X13281D01*
X-8563Y48917D02*
X-1331D01*
X7093Y40493D01*
Y37900D02*
Y40493D01*
X-28343Y92902D02*
Y118720D01*
X-28740Y92505D02*
X-28343Y92902D01*
X-28740Y92126D02*
Y92505D01*
X-8539Y51500D02*
X-2400D01*
X-8563Y51476D02*
X-8539Y51500D01*
X-12390Y51503D02*
X-8589D01*
X-13097Y50796D02*
X-12390Y51503D01*
X-13097Y50712D02*
Y50796D01*
X-14516Y49293D02*
X-13097Y50712D01*
X-14600Y49293D02*
X-14516D01*
X-1000Y82800D02*
X-732Y82532D01*
Y80260D02*
Y82532D01*
Y80260D02*
X4724Y74803D01*
X27249Y32200D02*
X27953Y31496D01*
X22000Y32200D02*
X27249D01*
X13033Y34252D02*
X14203Y33082D01*
X1693Y34252D02*
X13033D01*
X14203Y33082D02*
X14582D01*
X18898Y103150D02*
X18900Y103152D01*
Y118719D02*
X18902Y118720D01*
X18900Y103152D02*
Y118719D01*
X-4721Y118720D02*
X-4526Y118526D01*
Y102163D02*
Y118526D01*
Y102163D02*
X-4331Y101969D01*
X-30709Y65570D02*
X-29035D01*
X-27862Y64397D01*
Y64057D02*
Y64397D01*
Y64057D02*
X-25407Y61602D01*
X-18773D01*
X-17339Y60168D01*
X-8276Y63984D02*
X-4929D01*
X-3545Y62600D01*
X-6299Y67046D02*
X-6131D01*
X-5067Y68110D02*
X-3150D01*
X-6131Y67046D02*
X-5067Y68110D01*
X-16192Y60168D02*
X-15748Y59724D01*
X-17339Y60168D02*
X-16192D01*
X-8661Y61811D02*
X-8563Y61713D01*
X-12205Y61811D02*
X-8661D01*
X-15459Y60014D02*
X-14002D01*
X-12205Y61811D01*
X-15748Y59724D02*
X-15459Y60014D01*
X44882Y49213D02*
Y70079D01*
X36909Y41240D02*
X44882Y49213D01*
X14075Y41240D02*
X36909D01*
X18504Y27756D02*
X18504Y27756D01*
Y32677D01*
X10130Y62951D02*
Y83302D01*
X9668Y83765D02*
X10130Y83302D01*
X3336Y90376D02*
X9668Y84044D01*
Y83765D02*
Y84044D01*
X1969Y91464D02*
X2167D01*
X3254Y90376D01*
X3336D01*
X-5906Y88976D02*
X2756D01*
X8268Y83465D01*
Y62205D02*
Y83465D01*
X3937Y79134D02*
X6518Y76553D01*
Y53768D02*
Y76553D01*
X8268Y62205D02*
X11032Y59441D01*
X4724Y53002D02*
X11081Y46646D01*
X4724Y53002D02*
Y74803D01*
X10130Y62951D02*
X11081Y62000D01*
X13787D01*
X14075Y61713D01*
X6518Y53768D02*
X11081Y49205D01*
X11032Y59441D02*
X13787D01*
X3937Y79134D02*
Y83465D01*
X-2873Y79167D02*
X3150Y73144D01*
X-3543Y79936D02*
Y80315D01*
Y79936D02*
X-2873Y79266D01*
Y79167D02*
Y79266D01*
X3150Y52018D02*
Y73144D01*
Y52018D02*
X11081Y44087D01*
X13787Y59441D02*
X14075Y59153D01*
X-22437Y93889D02*
Y118720D01*
X-28530Y87795D02*
X-22437Y93889D01*
X-31107Y83983D02*
X-28615D01*
X-16532Y96067D02*
Y118720D01*
X-28615Y83983D02*
X-16532Y96067D01*
X-25591Y81496D02*
X-10626Y96461D01*
X-33426Y80315D02*
X-32245Y81496D01*
X-10626Y96461D02*
Y118720D01*
X-33531Y80315D02*
X-33426D01*
X-32245Y81496D02*
X-25591D01*
X-22437Y118720D02*
X-22437Y118720D01*
X-8563Y64272D02*
X-8276Y63984D01*
X-9449Y64559D02*
Y68898D01*
Y64559D02*
X-9161Y64272D01*
X-8563D01*
X13787Y44087D02*
X14075Y43799D01*
X11081Y44087D02*
X13787D01*
Y46646D02*
X14075Y46358D01*
X11081Y46646D02*
X13787D01*
X24409Y56002D02*
X24610Y55802D01*
X24409Y56002D02*
Y63386D01*
X21654D02*
X24409D01*
X20768Y64272D02*
X21654Y63386D01*
X14075Y64272D02*
X20768D01*
X1169Y34776D02*
X1693Y34252D01*
X-1181Y38667D02*
Y42913D01*
X-4626Y46358D02*
X-1181Y42913D01*
Y38667D02*
X1169Y36317D01*
X-8563Y46358D02*
X-4626D01*
X1169Y34776D02*
Y36317D01*
X13787Y49205D02*
X14075Y48917D01*
X11081Y49205D02*
X13787D01*
X1183Y118719D02*
X1185Y118720D01*
X1183Y101577D02*
Y118719D01*
X1181Y101575D02*
X1183Y101577D01*
X7089Y118719D02*
X7091Y118720D01*
X7089Y101971D02*
Y118719D01*
X7087Y101969D02*
X7089Y101971D01*
X12797Y118522D02*
X12996Y118720D01*
X12797Y102561D02*
Y118522D01*
X12598Y102362D02*
X12797Y102561D01*
X24558Y48374D02*
X24610Y48322D01*
X19343Y48374D02*
X24558D01*
X19291Y48425D02*
X19343Y48374D01*
D15*
X24610Y52062D02*
D03*
X33272Y55802D02*
D03*
Y48322D02*
D03*
X24610Y55802D02*
D03*
X24610Y48322D02*
D03*
D16*
X-276Y72835D02*
D03*
X35945Y63386D02*
D03*
X3707Y37900D02*
D03*
X-1693Y34252D02*
D03*
X-14055Y67323D02*
D03*
X-22953Y58661D02*
D03*
X-17441Y67323D02*
D03*
X32559Y63386D02*
D03*
X-3661Y72835D02*
D03*
X-19567Y58661D02*
D03*
X7093Y37900D02*
D03*
X1693Y34252D02*
D03*
D17*
X39764Y31496D02*
D03*
Y4724D02*
D03*
X27953D02*
D03*
Y31496D02*
D03*
D18*
X18504Y10039D02*
D03*
X-12992D02*
D03*
Y27756D02*
D03*
X18504D02*
D03*
D19*
X-15748Y63110D02*
D03*
X-21260Y64842D02*
D03*
X-14600Y45907D02*
D03*
X-18898Y50276D02*
D03*
X-22835D02*
D03*
Y53661D02*
D03*
X-18898D02*
D03*
X-21260Y68228D02*
D03*
X-15748Y59724D02*
D03*
X-14600Y49293D02*
D03*
D20*
X-39370Y61665D02*
D03*
X-16900Y34702D02*
D03*
X-39370Y54870D02*
D03*
X-16900Y41498D02*
D03*
D21*
X-8563Y54035D02*
D03*
Y56595D02*
D03*
Y59153D02*
D03*
X14075D02*
D03*
Y61713D02*
D03*
Y48917D02*
D03*
Y64272D02*
D03*
Y43799D02*
D03*
X-8563Y64272D02*
D03*
X14075Y46358D02*
D03*
X-8563D02*
D03*
Y51476D02*
D03*
X14075Y56595D02*
D03*
Y54035D02*
D03*
Y51476D02*
D03*
Y41240D02*
D03*
X-8563D02*
D03*
Y43799D02*
D03*
Y48917D02*
D03*
Y61713D02*
D03*
D22*
X-29528Y46457D02*
D03*
Y49606D02*
D03*
X-31102D02*
D03*
Y46457D02*
D03*
X-29528Y48031D02*
D03*
X-31102D02*
D03*
D23*
X-26024Y36614D02*
D03*
X-34606D02*
D03*
D24*
X28346Y63386D02*
D03*
X787Y68110D02*
D03*
X-3150D02*
D03*
X24409Y63386D02*
D03*
D25*
X-9449Y72835D02*
D03*
Y68898D02*
D03*
D26*
X-30709Y56477D02*
D03*
Y65570D02*
D03*
D33*
X-10626Y118720D02*
D03*
X18902D02*
D03*
X24807D02*
D03*
X-4721D02*
D03*
X1185D02*
D03*
X30713D02*
D03*
X-22437D02*
D03*
X7091D02*
D03*
X36618D02*
D03*
X-16532D02*
D03*
X12996D02*
D03*
D34*
X-28343D02*
D03*
D35*
X1306Y41400D02*
D03*
X-905Y30493D02*
D03*
X5545D02*
D03*
X2400D02*
D03*
X8895Y30514D02*
D03*
X-3905Y30493D02*
D03*
X-20000Y46700D02*
D03*
X-24923Y44077D02*
D03*
X-24443Y64156D02*
D03*
X-43300Y81819D02*
D03*
X-3900Y37500D02*
D03*
X-31084Y52737D02*
D03*
X-30709Y61024D02*
D03*
X39370Y74016D02*
D03*
X-2362Y55905D02*
D03*
X39764Y48031D02*
D03*
Y39370D02*
D03*
X-3150Y24803D02*
D03*
X-7874Y80709D02*
D03*
X-34646Y27559D02*
D03*
X-24803Y67323D02*
D03*
X-33071Y103150D02*
D03*
X662Y62205D02*
D03*
X32283Y68504D02*
D03*
X-2400Y51500D02*
D03*
X-1000Y82800D02*
D03*
X22000Y32200D02*
D03*
X14582Y33082D02*
D03*
X18898Y103150D02*
D03*
X-4331Y101969D02*
D03*
X-3543Y62598D02*
D03*
X-6299Y67046D02*
D03*
X44882Y70079D02*
D03*
X1969Y91464D02*
D03*
X-5906Y88976D02*
D03*
X-28740Y92126D02*
D03*
X-28530Y87795D02*
D03*
X-31107Y83983D02*
D03*
X-33531Y80315D02*
D03*
X3937Y83465D02*
D03*
X-3543Y80315D02*
D03*
X1181Y101575D02*
D03*
X7087Y101969D02*
D03*
X12598Y102362D02*
D03*
X19291Y48425D02*
D03*
D36*
X-29458Y46388D02*
X-27165D01*
X-24923Y44145D01*
X-30315Y43701D02*
X-29921Y43307D01*
X-31102Y44488D02*
Y46457D01*
Y44488D02*
X-30315Y43701D01*
X-31152Y49606D02*
X-31102D01*
X-31940Y50394D02*
X-31152Y49606D01*
X-32677Y50394D02*
X-31940D01*
X-29528Y48031D02*
X-28346D01*
X-26772Y49606D01*
X-34606Y46890D02*
X-33465Y48031D01*
X-34606Y36614D02*
Y46890D01*
X-33465Y48031D02*
X-31102D01*
D37*
X39764Y39370D02*
X39764Y39370D01*
X39764Y31496D02*
Y39370D01*
X39764Y31496D02*
X39764Y31496D01*
X39764Y4724D02*
Y31496D01*
Y394D02*
Y4724D01*
X18504Y3937D02*
X25591Y-3150D01*
X18504Y3937D02*
Y10039D01*
X36220Y-3150D02*
X39764Y394D01*
X25591Y-3150D02*
X36220D01*
X-12992Y10039D02*
X18504D01*
X-25984Y29134D02*
Y36575D01*
X-26024Y36614D02*
X-25984Y36654D01*
X-27559Y27559D02*
X-25984Y29134D01*
X-29528Y27559D02*
X-27559D01*
X-34646D02*
X-29528D01*
X-31562Y29594D02*
X-29528Y27559D01*
X-40551Y46850D02*
X-37008Y50394D01*
X-40551Y33071D02*
X-37074Y29594D01*
X-40551Y33071D02*
Y46850D01*
X-37074Y29594D02*
X-31562D01*
D38*
X-38491Y50394D02*
X-37008D01*
X-39370Y51272D02*
X-38491Y50394D01*
X-39370Y51272D02*
Y54870D01*
X-37008Y50394D02*
X-32677D01*
X-12992Y27756D02*
X18504D01*
X27953Y4724D02*
Y31496D01*
M02*
