G04*
G04 #@! TF.GenerationSoftware,Altium Limited,Altium Designer,26.10.1 (5)*
G04*
G04 Layer_Physical_Order=2*
G04 Layer_Color=16711680*
G04 Board_Origin=37281496|37827952*
%FSLAX25Y25*%
%MOIN*%
G70*
G04*
G04 #@! TF.SameCoordinates,9B41FC50-93BA-4191-A4F0-A01DB396449E*
G04*
G04*
G04 #@! TF.FilePolarity,Positive*
G04*
G01*
G75*
%ADD11C,0.01000*%
%ADD25R,0.02362X0.01968*%
%ADD33C,0.04362*%
%ADD34R,0.04362X0.04362*%
%ADD35C,0.01575*%
%ADD37C,0.01400*%
%ADD38C,0.01500*%
G04:AMPARAMS|DCode=39|XSize=39.37mil|YSize=78.74mil|CornerRadius=9.84mil|HoleSize=0mil|Usage=FLASHONLY|Rotation=270.000|XOffset=0mil|YOffset=0mil|HoleType=Round|Shape=RoundedRectangle|*
%AMROUNDEDRECTD39*
21,1,0.03937,0.05906,0,0,270.0*
21,1,0.01968,0.07874,0,0,270.0*
1,1,0.01968,-0.02953,-0.00984*
1,1,0.01968,-0.02953,0.00984*
1,1,0.01968,0.02953,0.00984*
1,1,0.01968,0.02953,-0.00984*
%
%ADD39ROUNDEDRECTD39*%
G04:AMPARAMS|DCode=40|XSize=47.24mil|YSize=23.62mil|CornerRadius=2.95mil|HoleSize=0mil|Usage=FLASHONLY|Rotation=180.000|XOffset=0mil|YOffset=0mil|HoleType=Round|Shape=RoundedRectangle|*
%AMROUNDEDRECTD40*
21,1,0.04724,0.01772,0,0,180.0*
21,1,0.04134,0.02362,0,0,180.0*
1,1,0.00591,-0.02067,0.00886*
1,1,0.00591,0.02067,0.00886*
1,1,0.00591,0.02067,-0.00886*
1,1,0.00591,-0.02067,-0.00886*
%
%ADD40ROUNDEDRECTD40*%
%ADD41R,0.15590X0.15590*%
%ADD42R,0.05000X0.20000*%
%ADD43O,0.01400X0.08924*%
%ADD44R,0.03150X0.03150*%
%ADD45R,0.03937X0.07874*%
D11*
X-2362Y55905D02*
X1306Y52237D01*
Y41400D02*
Y52237D01*
X-2639Y30314D02*
X-905Y32048D01*
X-24675Y44077D02*
Y44326D01*
X225Y37452D02*
X2362Y35315D01*
X-3150Y29803D02*
X-2639Y30314D01*
X-905Y30493D02*
Y32048D01*
X2362Y35315D01*
X-2639Y30314D02*
X-1758D01*
X-3726D02*
X-2639D01*
X-3905Y30493D02*
X-3726Y30314D01*
X-3150Y24803D02*
Y29803D01*
X-41339Y85413D02*
X-39370D01*
X-41868D02*
X-41339D01*
X-20268Y46432D02*
X-20000Y46700D01*
X-24675Y44326D02*
X-22568Y46432D01*
X-20268D01*
X-30883Y50037D02*
Y52536D01*
X-31084Y52737D02*
X-30883Y52536D01*
Y50037D02*
X-24923Y44077D01*
X-27287Y61024D02*
X-24443Y63867D01*
Y64156D01*
X-43300Y83982D02*
X-41868Y85413D01*
X-43300Y81819D02*
Y83982D01*
X-30709Y61024D02*
X-27287D01*
X-7874Y80709D02*
X-6120Y78954D01*
X-8142Y80976D02*
X-7874Y80709D01*
X48622Y90551D02*
X48819D01*
X46654Y92520D02*
X48622Y90551D01*
X43307Y77953D02*
Y81299D01*
X43307Y81299D02*
X43307Y81299D01*
X38189Y90945D02*
X39764Y92520D01*
X46654D01*
X38189Y86417D02*
Y90945D01*
Y86417D02*
X43307Y81299D01*
X39370Y74016D02*
X43307Y77953D01*
X-6120Y74056D02*
X-6043Y73979D01*
X-6120Y74056D02*
Y78954D01*
X-11292Y80976D02*
X-8142D01*
X-24928Y94613D02*
X-11292Y80976D01*
X-39370Y85413D02*
X-30170Y94613D01*
X-24928D01*
X-16929Y67323D02*
X-16120Y68132D01*
Y73903D01*
X662Y62205D02*
X4599Y66142D01*
X29921D01*
X28740Y86696D02*
X31018Y88973D01*
X28740Y72047D02*
Y86696D01*
X31018Y88973D02*
Y98532D01*
X31699Y99213D01*
X29921Y66142D02*
X32283Y68504D01*
X28740Y72047D02*
X32283Y68504D01*
X-24861Y67323D02*
X-16929D01*
X-2219Y65086D02*
X662Y62205D01*
X-4742Y65086D02*
X-2219D01*
X-5269Y64559D02*
X-4742Y65086D01*
X-12546Y64559D02*
X-5269D01*
X-16120Y68132D02*
X-12546Y64559D01*
X31699Y99213D02*
X32390D01*
Y105490D01*
X36117Y109217D01*
X37938D02*
X38957Y110236D01*
X36117Y109217D02*
X37938D01*
X-16800Y51500D02*
X-2400D01*
X-41339Y66929D02*
X-31209Y56800D01*
X-22100D02*
X-16800Y51500D01*
X-31209Y56800D02*
X-22100D01*
X-1043Y73979D02*
X-1022Y74001D01*
Y82778D01*
X-1000Y82800D01*
X45398Y103539D02*
Y110900D01*
X39980Y102953D02*
X44812D01*
X45398Y103539D01*
X21621Y32200D02*
X22000D01*
X14582Y33082D02*
X20740D01*
X21621Y32200D01*
X24807Y118046D02*
X26400Y116454D01*
X24807Y118046D02*
Y118720D01*
X26400Y106200D02*
Y116454D01*
X18957Y73979D02*
Y98757D01*
X26400Y106200D01*
X13957Y73979D02*
Y98642D01*
X12598Y100000D02*
Y102362D01*
Y100000D02*
X13957Y98642D01*
X16457Y101065D02*
X18542Y103150D01*
X18898D01*
X16457Y73979D02*
Y101065D01*
X6457Y73979D02*
Y91181D01*
X-4331Y101969D02*
X6457Y91181D01*
X-41339Y66929D02*
Y77863D01*
X10630Y48425D02*
X19291D01*
X-3543Y62598D02*
X10630Y48425D01*
X-12867Y86489D02*
X-3275D01*
X-31102Y96457D02*
X-22835D01*
X-12867Y86489D01*
X-34646Y92913D02*
X-31102Y96457D01*
X-41339Y92913D02*
X-34646D01*
X-10683Y67046D02*
X-6299D01*
X-13031Y69394D02*
X-10683Y67046D01*
X33858Y85039D02*
Y94882D01*
X39764Y100787D02*
Y102736D01*
X33858Y94882D02*
X39764Y100787D01*
X48622Y82480D02*
Y86417D01*
X45472Y86614D02*
X48819D01*
X43307Y88779D02*
X45472Y86614D01*
X48228Y78347D02*
X48425D01*
X47744Y77862D02*
X48228Y78347D01*
X47744Y77665D02*
Y77862D01*
X44882Y74803D02*
X47744Y77665D01*
X44882Y70079D02*
Y74803D01*
X-3275Y86489D02*
X1700Y91464D01*
X1969D01*
X-11024Y88976D02*
X-5906D01*
X-22461Y100413D02*
X-11024Y88976D01*
X-26043Y73979D02*
Y89429D01*
X-28740Y92126D02*
X-26043Y89429D01*
X-41339Y100413D02*
X-22461D01*
X-28537Y73986D02*
Y87789D01*
X-28530Y87795D01*
X-28543Y73979D02*
X-28537Y73986D01*
X-31107Y83983D02*
X-31043Y83920D01*
Y73979D02*
Y83920D01*
X-33537Y73986D02*
Y80309D01*
X-33531Y80315D01*
X-33543Y73979D02*
X-33537Y73986D01*
X-13543Y70109D02*
Y73979D01*
Y70109D02*
X-13031Y69596D01*
Y69394D02*
Y69596D01*
X3937Y82284D02*
Y83465D01*
Y82284D02*
X3957Y82264D01*
Y73979D02*
Y82264D01*
X-3543Y73980D02*
Y80315D01*
Y73980D02*
X-3543Y73979D01*
X1181Y101575D02*
X8957Y93799D01*
Y73979D02*
Y93799D01*
X7087Y101969D02*
X11457Y97598D01*
Y73979D02*
Y97598D01*
X27953Y115961D02*
X30713Y118720D01*
X27953Y105130D02*
Y115961D01*
X21457Y98634D02*
X27953Y105130D01*
X21457Y73979D02*
Y98634D01*
X30191Y105388D02*
Y112294D01*
X23957Y73979D02*
Y99154D01*
X30191Y105388D01*
Y112294D02*
X36618Y118720D01*
D25*
X48819Y90551D02*
D03*
Y86614D02*
D03*
Y78347D02*
D03*
Y82284D02*
D03*
D33*
X-10626Y118720D02*
D03*
X18902D02*
D03*
X24807D02*
D03*
X-4721D02*
D03*
X1185D02*
D03*
X30713D02*
D03*
X-22437D02*
D03*
X7091D02*
D03*
X36618D02*
D03*
X-16532D02*
D03*
X12996D02*
D03*
D34*
X-28343D02*
D03*
D35*
X1306Y41400D02*
D03*
X-905Y30493D02*
D03*
X5545D02*
D03*
X2400D02*
D03*
X8895Y30514D02*
D03*
X-3905Y30493D02*
D03*
X-20000Y46700D02*
D03*
X-24923Y44077D02*
D03*
X-24443Y64156D02*
D03*
X-43300Y81819D02*
D03*
X-3900Y37500D02*
D03*
X-31084Y52737D02*
D03*
X-30709Y61024D02*
D03*
X39370Y74016D02*
D03*
X-2362Y55905D02*
D03*
X39764Y48031D02*
D03*
Y39370D02*
D03*
X-3150Y24803D02*
D03*
X-7874Y80709D02*
D03*
X-34646Y27559D02*
D03*
X-24803Y67323D02*
D03*
X-33071Y103150D02*
D03*
X662Y62205D02*
D03*
X32283Y68504D02*
D03*
X-2400Y51500D02*
D03*
X-1000Y82800D02*
D03*
X22000Y32200D02*
D03*
X14582Y33082D02*
D03*
X18898Y103150D02*
D03*
X-4331Y101969D02*
D03*
X-3543Y62598D02*
D03*
X-6299Y67046D02*
D03*
X44882Y70079D02*
D03*
X1969Y91464D02*
D03*
X-5906Y88976D02*
D03*
X-28740Y92126D02*
D03*
X-28530Y87795D02*
D03*
X-31107Y83983D02*
D03*
X-33531Y80315D02*
D03*
X3937Y83465D02*
D03*
X-3543Y80315D02*
D03*
X1181Y101575D02*
D03*
X7087Y101969D02*
D03*
X12598Y102362D02*
D03*
X19291Y48425D02*
D03*
D37*
X39764Y39370D02*
Y48031D01*
X38071Y35315D02*
X45610D01*
X22441Y19685D02*
X38071Y35315D01*
X-39086Y27559D02*
X-34646D01*
X-40886Y29359D02*
Y35315D01*
Y29359D02*
X-39086Y27559D01*
X-26772Y19685D02*
X22441D01*
X-34646Y27559D02*
X-26772Y19685D01*
D38*
X-39370Y107913D02*
X-34778Y103322D01*
X-41339Y107913D02*
X-39370D01*
X-34778Y103322D02*
X-33243D01*
X-33071Y103150D01*
D39*
X-41339Y100413D02*
D03*
Y77863D02*
D03*
Y92913D02*
D03*
Y85413D02*
D03*
Y107913D02*
D03*
D40*
X31673Y99213D02*
D03*
X39980Y95472D02*
D03*
Y102953D02*
D03*
D41*
X2362Y35315D02*
D03*
D42*
X-40886D02*
D03*
X45610D02*
D03*
D43*
X-6043Y73979D02*
D03*
X-16043D02*
D03*
X-1043D02*
D03*
X23957D02*
D03*
X21457D02*
D03*
X18957D02*
D03*
X16457D02*
D03*
X13957D02*
D03*
X11457D02*
D03*
X8957D02*
D03*
X6457D02*
D03*
X3957D02*
D03*
X1457D02*
D03*
X-3543D02*
D03*
X-8543D02*
D03*
X-11043D02*
D03*
X-13543D02*
D03*
X-18543D02*
D03*
X-21043D02*
D03*
X-23543D02*
D03*
X-26043D02*
D03*
X-28543D02*
D03*
X-31043D02*
D03*
X-33543D02*
D03*
X23957Y110817D02*
D03*
X21457D02*
D03*
X18957D02*
D03*
X16457D02*
D03*
X13957D02*
D03*
X11457D02*
D03*
X8957D02*
D03*
X6457D02*
D03*
X3957D02*
D03*
X1457D02*
D03*
X-1043D02*
D03*
X-3543D02*
D03*
X-6043D02*
D03*
X-8543D02*
D03*
X-11043D02*
D03*
X-13543D02*
D03*
X-16043D02*
D03*
X-18543D02*
D03*
X-21043D02*
D03*
X-23543D02*
D03*
X-26043D02*
D03*
X-28543D02*
D03*
X-31043D02*
D03*
X-33543D02*
D03*
D44*
X43307Y81299D02*
D03*
X33858Y85039D02*
D03*
X43307Y88779D02*
D03*
D45*
X39000Y110900D02*
D03*
X45398D02*
D03*
M02*
