G04*
G04 #@! TF.GenerationSoftware,Altium Limited,Altium Designer,26.10.1 (5)*
G04*
G04 Layer_Color=8388736*
G04 Board_Origin=37281496|37827952*
%FSLAX25Y25*%
%MOIN*%
G70*
G04*
G04 #@! TF.SameCoordinates,9B41FC50-93BA-4191-A4F0-A01DB396449E*
G04*
G04*
G04 #@! TF.FilePolarity,Negative*
G04*
G01*
G75*
%ADD20R,0.05433X0.04331*%
%ADD21R,0.05315X0.01575*%
%ADD22C,0.00984*%
%ADD23R,0.04882X0.08740*%
%ADD24R,0.01968X0.02362*%
%ADD25R,0.02362X0.01968*%
%ADD27R,0.04331X0.02756*%
G04:AMPARAMS|DCode=28|XSize=29.29mil|YSize=31.65mil|CornerRadius=9.65mil|HoleSize=0mil|Usage=FLASHONLY|Rotation=180.000|XOffset=0mil|YOffset=0mil|HoleType=Round|Shape=RoundedRectangle|*
%AMROUNDEDRECTD28*
21,1,0.02929,0.01235,0,0,180.0*
21,1,0.00999,0.03165,0,0,180.0*
1,1,0.01930,-0.00500,0.00618*
1,1,0.01930,0.00500,0.00618*
1,1,0.01930,0.00500,-0.00618*
1,1,0.01930,-0.00500,-0.00618*
%
%ADD28ROUNDEDRECTD28*%
%ADD29R,0.03943X0.05912*%
%ADD30R,0.08274X0.05124*%
G04:AMPARAMS|DCode=31|XSize=29.29mil|YSize=31.65mil|CornerRadius=9.65mil|HoleSize=0mil|Usage=FLASHONLY|Rotation=270.000|XOffset=0mil|YOffset=0mil|HoleType=Round|Shape=RoundedRectangle|*
%AMROUNDEDRECTD31*
21,1,0.02929,0.01235,0,0,270.0*
21,1,0.00999,0.03165,0,0,270.0*
1,1,0.01930,-0.00618,-0.00500*
1,1,0.01930,-0.00618,0.00500*
1,1,0.01930,0.00618,0.00500*
1,1,0.01930,0.00618,-0.00500*
%
%ADD31ROUNDEDRECTD31*%
%ADD32R,0.07093X0.03747*%
%ADD33C,0.04362*%
%ADD34R,0.04362X0.04362*%
%ADD35C,0.01575*%
D20*
X-39370Y61665D02*
D03*
X-16900Y34702D02*
D03*
X-39370Y54870D02*
D03*
X-16900Y41498D02*
D03*
D21*
X-8563Y54035D02*
D03*
Y56595D02*
D03*
Y59153D02*
D03*
X14075D02*
D03*
Y61713D02*
D03*
Y48917D02*
D03*
Y64272D02*
D03*
Y43799D02*
D03*
X-8563Y64272D02*
D03*
X14075Y46358D02*
D03*
X-8563D02*
D03*
Y51476D02*
D03*
X14075Y56595D02*
D03*
Y54035D02*
D03*
Y51476D02*
D03*
Y41240D02*
D03*
X-8563D02*
D03*
Y43799D02*
D03*
Y48917D02*
D03*
Y61713D02*
D03*
D22*
X-29528Y46457D02*
D03*
Y49606D02*
D03*
X-31102D02*
D03*
Y46457D02*
D03*
X-29528Y48031D02*
D03*
X-31102D02*
D03*
D23*
X-26024Y36614D02*
D03*
X-34606D02*
D03*
D24*
X28346Y63386D02*
D03*
X787Y68110D02*
D03*
X-3150D02*
D03*
X24409Y63386D02*
D03*
D25*
X-9449Y72835D02*
D03*
Y68898D02*
D03*
D27*
X24610Y52062D02*
D03*
X33272Y55802D02*
D03*
Y48322D02*
D03*
X24610Y55802D02*
D03*
X24610Y48322D02*
D03*
D28*
X-276Y72835D02*
D03*
X35945Y63386D02*
D03*
X3707Y37900D02*
D03*
X-1693Y34252D02*
D03*
X-14055Y67323D02*
D03*
X-22953Y58661D02*
D03*
X-17441Y67323D02*
D03*
X32559Y63386D02*
D03*
X-3661Y72835D02*
D03*
X-19567Y58661D02*
D03*
X7093Y37900D02*
D03*
X1693Y34252D02*
D03*
D29*
X39764Y31496D02*
D03*
Y4724D02*
D03*
X27953D02*
D03*
Y31496D02*
D03*
D30*
X18504Y10039D02*
D03*
X-12992D02*
D03*
Y27756D02*
D03*
X18504D02*
D03*
D31*
X-15748Y63110D02*
D03*
X-21260Y64842D02*
D03*
X-14600Y45907D02*
D03*
X-18898Y50276D02*
D03*
X-22835D02*
D03*
Y53661D02*
D03*
X-18898D02*
D03*
X-21260Y68228D02*
D03*
X-15748Y59724D02*
D03*
X-14600Y49293D02*
D03*
D32*
X-30709Y56477D02*
D03*
Y65570D02*
D03*
D33*
X-10626Y118720D02*
D03*
X18902D02*
D03*
X24807D02*
D03*
X-4721D02*
D03*
X1185D02*
D03*
X30713D02*
D03*
X-22437D02*
D03*
X7091D02*
D03*
X36618D02*
D03*
X-16532D02*
D03*
X12996D02*
D03*
D34*
X-28343D02*
D03*
D35*
X1306Y41400D02*
D03*
X-905Y30493D02*
D03*
X5545D02*
D03*
X2400D02*
D03*
X8895Y30514D02*
D03*
X-3905Y30493D02*
D03*
X-20000Y46700D02*
D03*
X-24923Y44077D02*
D03*
X-24443Y64156D02*
D03*
X-43300Y81819D02*
D03*
X-3900Y37500D02*
D03*
X-31084Y52737D02*
D03*
X-30709Y61024D02*
D03*
X39370Y74016D02*
D03*
X-2362Y55905D02*
D03*
X39764Y48031D02*
D03*
Y39370D02*
D03*
X-3150Y24803D02*
D03*
X-7874Y80709D02*
D03*
X-34646Y27559D02*
D03*
X-24803Y67323D02*
D03*
X-33071Y103150D02*
D03*
X662Y62205D02*
D03*
X32283Y68504D02*
D03*
X-2400Y51500D02*
D03*
X-1000Y82800D02*
D03*
X22000Y32200D02*
D03*
X14582Y33082D02*
D03*
X18898Y103150D02*
D03*
X-4331Y101969D02*
D03*
X-3543Y62598D02*
D03*
X-6299Y67046D02*
D03*
X44882Y70079D02*
D03*
X1969Y91464D02*
D03*
X-5906Y88976D02*
D03*
X-28740Y92126D02*
D03*
X-28530Y87795D02*
D03*
X-31107Y83983D02*
D03*
X-33531Y80315D02*
D03*
X3937Y83465D02*
D03*
X-3543Y80315D02*
D03*
X1181Y101575D02*
D03*
X7087Y101969D02*
D03*
X12598Y102362D02*
D03*
X19291Y48425D02*
D03*
M02*
