G04*
G04 #@! TF.GenerationSoftware,Altium Limited,Altium Designer,26.10.1 (5)*
G04*
G04 Layer_Color=32896*
G04 Board_Origin=37281496|37827952*
%FSLAX25Y25*%
%MOIN*%
G70*
G04*
G04 #@! TF.SameCoordinates,9B41FC50-93BA-4191-A4F0-A01DB396449E*
G04*
G04*
G04 #@! TF.FilePolarity,Positive*
G04*
G01*
G75*
%ADD10C,0.00787*%
%ADD12C,0.00500*%
%ADD13C,0.00600*%
%ADD14C,0.00591*%
%ADD48C,0.01181*%
%ADD49C,0.00100*%
G36*
X50582Y34348D02*
X51266D01*
Y34060D01*
X50582D01*
Y33376D01*
X50291D01*
Y34060D01*
X49606D01*
Y34348D01*
X50291D01*
Y35039D01*
X50582D01*
Y34348D01*
D02*
G37*
G36*
X-45088Y34742D02*
X-44403D01*
Y34454D01*
X-45088D01*
Y33770D01*
X-45379D01*
Y34454D01*
X-46063D01*
Y34742D01*
X-45379D01*
Y35433D01*
X-45088D01*
Y34742D01*
D02*
G37*
D10*
X45295Y102953D02*
G03*
X45295Y102953I-394J0D01*
G01*
X44606Y453D02*
G03*
X-39882Y453I-42244J-88899D01*
G01*
X-23799Y64902D02*
X28524D01*
X29016D02*
X44606Y49311D01*
X-39882D02*
X-24291Y64902D01*
X44606Y453D02*
Y20866D01*
X-39882Y453D02*
Y20866D01*
X44606Y47343D02*
Y49311D01*
X-39882Y47343D02*
Y49311D01*
X42126Y84350D02*
Y85728D01*
X35039Y78937D02*
X40256D01*
X35039Y88090D02*
Y91142D01*
Y78937D02*
Y81988D01*
Y91142D02*
X40256D01*
X46161Y86614D02*
Y90551D01*
X51476Y86614D02*
Y90551D01*
Y78347D02*
Y82284D01*
X46161Y78347D02*
Y82284D01*
D12*
X33268Y104921D02*
X36358D01*
X33268Y93504D02*
Y96772D01*
Y101654D02*
Y104921D01*
Y93504D02*
X36358D01*
D13*
X26757Y79342D02*
Y105455D01*
X-36343D02*
X26757D01*
X-36343Y79342D02*
Y105455D01*
Y79342D02*
X26757D01*
D14*
X-42876Y116633D02*
Y113634D01*
X-42689Y113072D01*
X-42501Y112885D01*
X-42126Y112697D01*
X-41751D01*
X-41376Y112885D01*
X-41189Y113072D01*
X-41001Y113634D01*
Y114009D01*
X-43888Y115884D02*
X-44263Y116071D01*
X-44825Y116633D01*
Y112697D01*
X49957Y101082D02*
Y97146D01*
Y101082D02*
X48645D01*
X48083Y100895D01*
X47708Y100520D01*
X47521Y100145D01*
X47333Y99583D01*
Y98646D01*
X47521Y98083D01*
X47708Y97708D01*
X48083Y97334D01*
X48645Y97146D01*
X49957D01*
X46452Y100332D02*
X46077Y100520D01*
X45515Y101082D01*
Y97146D01*
X46063Y-2532D02*
X50000D01*
X46063D02*
Y-4219D01*
X46251Y-4781D01*
X46438Y-4968D01*
X46813Y-5156D01*
X47188D01*
X47563Y-4968D01*
X47750Y-4781D01*
X47938Y-4219D01*
Y-2532D02*
Y-4219D01*
X48125Y-4781D01*
X48313Y-4968D01*
X48687Y-5156D01*
X49250D01*
X49625Y-4968D01*
X49812Y-4781D01*
X50000Y-4219D01*
Y-2532D01*
X46063Y-7349D02*
X50000D01*
X46063Y-6037D02*
Y-8661D01*
X46813Y-9129D02*
X46626Y-9504D01*
X46063Y-10067D01*
X50000D01*
X39885Y75679D02*
X40260Y75492D01*
X40635Y75117D01*
X40822Y74742D01*
X41010Y74180D01*
Y73242D01*
X40822Y72680D01*
X40635Y72305D01*
X40260Y71930D01*
X39885Y71743D01*
X39136D01*
X38761Y71930D01*
X38386Y72305D01*
X38198Y72680D01*
X38011Y73242D01*
Y74180D01*
X38198Y74742D01*
X38386Y75117D01*
X38761Y75492D01*
X39136Y75679D01*
X39885D01*
X39323Y72493D02*
X38198Y71368D01*
X37093Y74929D02*
X36718Y75117D01*
X36155Y75679D01*
Y71743D01*
X47985Y122157D02*
Y118220D01*
Y122157D02*
X46486Y118220D01*
X44986Y122157D02*
X46486Y118220D01*
X44986Y122157D02*
Y118220D01*
X43861Y121407D02*
X43487Y121594D01*
X42924Y122157D01*
Y118220D01*
D48*
X24548Y82303D02*
G03*
X24548Y82303I-591J0D01*
G01*
X27029Y73979D02*
G03*
X27029Y73979I-591J0D01*
G01*
D49*
X-46383Y111405D02*
X-35339Y111313D01*
Y73863D02*
Y111313D01*
X-46511Y73863D02*
X-35339D01*
X-46511D02*
X-46383Y111405D01*
X48546Y106204D02*
X48548Y115547D01*
X36119Y106332D02*
X48546Y106204D01*
X36167Y115506D02*
X48548Y115547D01*
X36119Y106332D02*
X36167Y115506D01*
M02*
