G04*
G04 #@! TF.GenerationSoftware,Altium Limited,Altium Designer,26.10.1 (5)*
G04*
G04 Layer_Color=8421504*
G04 Board_Origin=37281496|37827952*
%FSLAX25Y25*%
%MOIN*%
G70*
G04*
G04 #@! TF.SameCoordinates,9B41FC50-93BA-4191-A4F0-A01DB396449E*
G04*
G04*
G04 #@! TF.FilePolarity,Positive*
G04*
G01*
G75*
%ADD15R,0.03937X0.02362*%
G04:AMPARAMS|DCode=16|XSize=21.26mil|YSize=23.62mil|CornerRadius=5.63mil|HoleSize=0mil|Usage=FLASHONLY|Rotation=180.000|XOffset=0mil|YOffset=0mil|HoleType=Round|Shape=RoundedRectangle|*
%AMROUNDEDRECTD16*
21,1,0.02126,0.01235,0,0,180.0*
21,1,0.00999,0.02362,0,0,180.0*
1,1,0.01127,-0.00500,0.00618*
1,1,0.01127,0.00500,0.00618*
1,1,0.01127,0.00500,-0.00618*
1,1,0.01127,-0.00500,-0.00618*
%
%ADD16ROUNDEDRECTD16*%
%ADD17R,0.03543X0.05512*%
%ADD18R,0.07874X0.04724*%
G04:AMPARAMS|DCode=19|XSize=21.26mil|YSize=23.62mil|CornerRadius=5.63mil|HoleSize=0mil|Usage=FLASHONLY|Rotation=270.000|XOffset=0mil|YOffset=0mil|HoleType=Round|Shape=RoundedRectangle|*
%AMROUNDEDRECTD19*
21,1,0.02126,0.01235,0,0,270.0*
21,1,0.00999,0.02362,0,0,270.0*
1,1,0.01127,-0.00618,-0.00500*
1,1,0.01127,-0.00618,0.00500*
1,1,0.01127,0.00618,0.00500*
1,1,0.01127,0.00618,-0.00500*
%
%ADD19ROUNDEDRECTD19*%
%ADD20R,0.05433X0.04331*%
%ADD21R,0.05315X0.01575*%
%ADD22C,0.00984*%
%ADD23R,0.04882X0.08740*%
%ADD24R,0.01968X0.02362*%
%ADD25R,0.02362X0.01968*%
%ADD26R,0.06693X0.03347*%
D15*
X24610Y52062D02*
D03*
X33272Y55802D02*
D03*
Y48322D02*
D03*
X24610Y55802D02*
D03*
X24610Y48322D02*
D03*
D16*
X-276Y72835D02*
D03*
X35945Y63386D02*
D03*
X3707Y37900D02*
D03*
X-1693Y34252D02*
D03*
X-14055Y67323D02*
D03*
X-22953Y58661D02*
D03*
X-17441Y67323D02*
D03*
X32559Y63386D02*
D03*
X-3661Y72835D02*
D03*
X-19567Y58661D02*
D03*
X7093Y37900D02*
D03*
X1693Y34252D02*
D03*
D17*
X39764Y31496D02*
D03*
Y4724D02*
D03*
X27953D02*
D03*
Y31496D02*
D03*
D18*
X18504Y10039D02*
D03*
X-12992D02*
D03*
Y27756D02*
D03*
X18504D02*
D03*
D19*
X-15748Y63110D02*
D03*
X-21260Y64842D02*
D03*
X-14600Y45907D02*
D03*
X-18898Y50276D02*
D03*
X-22835D02*
D03*
Y53661D02*
D03*
X-18898D02*
D03*
X-21260Y68228D02*
D03*
X-15748Y59724D02*
D03*
X-14600Y49293D02*
D03*
D20*
X-39370Y61665D02*
D03*
X-16900Y34702D02*
D03*
X-39370Y54870D02*
D03*
X-16900Y41498D02*
D03*
D21*
X-8563Y54035D02*
D03*
Y56595D02*
D03*
Y59153D02*
D03*
X14075D02*
D03*
Y61713D02*
D03*
Y48917D02*
D03*
Y64272D02*
D03*
Y43799D02*
D03*
X-8563Y64272D02*
D03*
X14075Y46358D02*
D03*
X-8563D02*
D03*
Y51476D02*
D03*
X14075Y56595D02*
D03*
Y54035D02*
D03*
Y51476D02*
D03*
Y41240D02*
D03*
X-8563D02*
D03*
Y43799D02*
D03*
Y48917D02*
D03*
Y61713D02*
D03*
D22*
X-29528Y46457D02*
D03*
Y49606D02*
D03*
X-31102D02*
D03*
Y46457D02*
D03*
X-29528Y48031D02*
D03*
X-31102D02*
D03*
D23*
X-26024Y36614D02*
D03*
X-34606D02*
D03*
D24*
X28346Y63386D02*
D03*
X787Y68110D02*
D03*
X-3150D02*
D03*
X24409Y63386D02*
D03*
D25*
X-9449Y72835D02*
D03*
Y68898D02*
D03*
D26*
X-30709Y56477D02*
D03*
Y65570D02*
D03*
M02*
