G04*
G04 #@! TF.GenerationSoftware,Altium Limited,Altium Designer,26.10.1 (5)*
G04*
G04 Layer_Color=128*
G04 Board_Origin=37281496|37827952*
%FSLAX25Y25*%
%MOIN*%
G70*
G04*
G04 #@! TF.SameCoordinates,9B41FC50-93BA-4191-A4F0-A01DB396449E*
G04*
G04*
G04 #@! TF.FilePolarity,Positive*
G04*
G01*
G75*
%ADD25R,0.02362X0.01968*%
G04:AMPARAMS|DCode=39|XSize=39.37mil|YSize=78.74mil|CornerRadius=9.84mil|HoleSize=0mil|Usage=FLASHONLY|Rotation=270.000|XOffset=0mil|YOffset=0mil|HoleType=Round|Shape=RoundedRectangle|*
%AMROUNDEDRECTD39*
21,1,0.03937,0.05906,0,0,270.0*
21,1,0.01968,0.07874,0,0,270.0*
1,1,0.01968,-0.02953,-0.00984*
1,1,0.01968,-0.02953,0.00984*
1,1,0.01968,0.02953,0.00984*
1,1,0.01968,0.02953,-0.00984*
%
%ADD39ROUNDEDRECTD39*%
G04:AMPARAMS|DCode=40|XSize=47.24mil|YSize=23.62mil|CornerRadius=2.95mil|HoleSize=0mil|Usage=FLASHONLY|Rotation=180.000|XOffset=0mil|YOffset=0mil|HoleType=Round|Shape=RoundedRectangle|*
%AMROUNDEDRECTD40*
21,1,0.04724,0.01772,0,0,180.0*
21,1,0.04134,0.02362,0,0,180.0*
1,1,0.00591,-0.02067,0.00886*
1,1,0.00591,0.02067,0.00886*
1,1,0.00591,0.02067,-0.00886*
1,1,0.00591,-0.02067,-0.00886*
%
%ADD40ROUNDEDRECTD40*%
%ADD42R,0.05000X0.20000*%
%ADD43O,0.01400X0.08924*%
%ADD44R,0.03150X0.03150*%
%ADD45R,0.03937X0.07874*%
D25*
X48819Y90551D02*
D03*
Y86614D02*
D03*
Y78347D02*
D03*
Y82284D02*
D03*
D39*
X-41339Y100413D02*
D03*
Y77863D02*
D03*
Y92913D02*
D03*
Y85413D02*
D03*
Y107913D02*
D03*
D40*
X31673Y99213D02*
D03*
X39980Y95472D02*
D03*
Y102953D02*
D03*
D42*
X-40886Y35315D02*
D03*
X45610D02*
D03*
D43*
X-6043Y73979D02*
D03*
X-16043D02*
D03*
X-1043D02*
D03*
X23957D02*
D03*
X21457D02*
D03*
X18957D02*
D03*
X16457D02*
D03*
X13957D02*
D03*
X11457D02*
D03*
X8957D02*
D03*
X6457D02*
D03*
X3957D02*
D03*
X1457D02*
D03*
X-3543D02*
D03*
X-8543D02*
D03*
X-11043D02*
D03*
X-13543D02*
D03*
X-18543D02*
D03*
X-21043D02*
D03*
X-23543D02*
D03*
X-26043D02*
D03*
X-28543D02*
D03*
X-31043D02*
D03*
X-33543D02*
D03*
X23957Y110817D02*
D03*
X21457D02*
D03*
X18957D02*
D03*
X16457D02*
D03*
X13957D02*
D03*
X11457D02*
D03*
X8957D02*
D03*
X6457D02*
D03*
X3957D02*
D03*
X1457D02*
D03*
X-1043D02*
D03*
X-3543D02*
D03*
X-6043D02*
D03*
X-8543D02*
D03*
X-11043D02*
D03*
X-13543D02*
D03*
X-16043D02*
D03*
X-18543D02*
D03*
X-21043D02*
D03*
X-23543D02*
D03*
X-26043D02*
D03*
X-28543D02*
D03*
X-31043D02*
D03*
X-33543D02*
D03*
D44*
X43307Y81299D02*
D03*
X33858Y85039D02*
D03*
X43307Y88779D02*
D03*
D45*
X39000Y110900D02*
D03*
X45398D02*
D03*
M02*
