ISO-10303-21;
HEADER;
FILE_DESCRIPTION(('FreeCAD Model'),'2;1');
FILE_NAME('Open CASCADE Shape Model','2025-09-09T11:53:19',(''),(''),
  'Open CASCADE STEP processor 7.8','FreeCAD','Unknown');
FILE_SCHEMA(('AUTOMOTIVE_DESIGN { 1 0 10303 214 1 1 1 1 }'));
ENDSEC;
DATA;
#1 = APPLICATION_PROTOCOL_DEFINITION('international standard',
  'automotive_design',2000,#2);
#2 = APPLICATION_CONTEXT(
  'core data for automotive mechanical design processes');
#3 = SHAPE_DEFINITION_REPRESENTATION(#4,#10);
#4 = PRODUCT_DEFINITION_SHAPE('','',#5);
#5 = PRODUCT_DEFINITION('design','',#6,#9);
#6 = PRODUCT_DEFINITION_FORMATION('','',#7);
#7 = PRODUCT('SOIC_standard','SOIC_standard','',(#8));
#8 = PRODUCT_CONTEXT('',#2,'mechanical');
#9 = PRODUCT_DEFINITION_CONTEXT('part definition',#2,'design');
#10 = SHAPE_REPRESENTATION('',(#11,#15,#19,#23),#27);
#11 = AXIS2_PLACEMENT_3D('',#12,#13,#14);
#12 = CARTESIAN_POINT('',(0.,0.,0.));
#13 = DIRECTION('',(0.,0.,1.));
#14 = DIRECTION('',(1.,0.,-0.));
#15 = AXIS2_PLACEMENT_3D('',#16,#17,#18);
#16 = CARTESIAN_POINT('',(0.,0.,0.));
#17 = DIRECTION('',(0.,0.,1.));
#18 = DIRECTION('',(1.,0.,0.));
#19 = AXIS2_PLACEMENT_3D('',#20,#21,#22);
#20 = CARTESIAN_POINT('',(0.,0.,0.));
#21 = DIRECTION('',(0.,0.,1.));
#22 = DIRECTION('',(1.,0.,0.));
#23 = AXIS2_PLACEMENT_3D('',#24,#25,#26);
#24 = CARTESIAN_POINT('',(0.,0.,0.));
#25 = DIRECTION('',(0.,0.,1.));
#26 = DIRECTION('',(1.,0.,0.));
#27 = ( GEOMETRIC_REPRESENTATION_CONTEXT(3) 
GLOBAL_UNCERTAINTY_ASSIGNED_CONTEXT((#31)) GLOBAL_UNIT_ASSIGNED_CONTEXT(
(#28,#29,#30)) REPRESENTATION_CONTEXT('Context #1',
  '3D Context with UNIT and UNCERTAINTY') );
#28 = ( LENGTH_UNIT() NAMED_UNIT(*) SI_UNIT(.MILLI.,.METRE.) );
#29 = ( NAMED_UNIT(*) PLANE_ANGLE_UNIT() SI_UNIT($,.RADIAN.) );
#30 = ( NAMED_UNIT(*) SI_UNIT($,.STERADIAN.) SOLID_ANGLE_UNIT() );
#31 = UNCERTAINTY_MEASURE_WITH_UNIT(LENGTH_MEASURE(5.E-07),#28,
  'distance_accuracy_value','confusion accuracy');
#32 = PRODUCT_RELATED_PRODUCT_CATEGORY('part',$,(#7));
#33 = SHAPE_DEFINITION_REPRESENTATION(#34,#40);
#34 = PRODUCT_DEFINITION_SHAPE('','',#35);
#35 = PRODUCT_DEFINITION('design','',#36,#39);
#36 = PRODUCT_DEFINITION_FORMATION('','',#37);
#37 = PRODUCT('Body','Body','',(#38));
#38 = PRODUCT_CONTEXT('',#2,'mechanical');
#39 = PRODUCT_DEFINITION_CONTEXT('part definition',#2,'design');
#40 = ADVANCED_BREP_SHAPE_REPRESENTATION('',(#11,#41),#383);
#41 = MANIFOLD_SOLID_BREP('',#42);
#42 = CLOSED_SHELL('',(#43,#83,#114,#145,#176,#207,#231,#255,#272,#294,
    #318,#342,#359,#371));
#43 = ADVANCED_FACE('',(#44),#78,.T.);
#44 = FACE_BOUND('',#45,.T.);
#45 = EDGE_LOOP('',(#46,#56,#64,#72));
#46 = ORIENTED_EDGE('',*,*,#47,.T.);
#47 = EDGE_CURVE('',#48,#50,#52,.T.);
#48 = VERTEX_POINT('',#49);
#49 = CARTESIAN_POINT('',(3.05,0.528449513664,6.25));
#50 = VERTEX_POINT('',#51);
#51 = CARTESIAN_POINT('',(3.05,0.528449513664,-6.25));
#52 = LINE('',#53,#54);
#53 = CARTESIAN_POINT('',(3.05,0.528449513664,14.084203040401));
#54 = VECTOR('',#55,1.);
#55 = DIRECTION('',(0.,0.,-1.));
#56 = ORIENTED_EDGE('',*,*,#57,.T.);
#57 = EDGE_CURVE('',#50,#58,#60,.T.);
#58 = VERTEX_POINT('',#59);
#59 = CARTESIAN_POINT('',(3.05,0.673449513664,-6.25));
#60 = LINE('',#61,#62);
#61 = CARTESIAN_POINT('',(3.05,-1.387778780781E-15,-6.25));
#62 = VECTOR('',#63,1.);
#63 = DIRECTION('',(0.,1.,-2.22044604925E-16));
#64 = ORIENTED_EDGE('',*,*,#65,.F.);
#65 = EDGE_CURVE('',#66,#58,#68,.T.);
#66 = VERTEX_POINT('',#67);
#67 = CARTESIAN_POINT('',(3.05,0.673449513664,6.25));
#68 = LINE('',#69,#70);
#69 = CARTESIAN_POINT('',(3.05,0.673449513664,14.084203040401));
#70 = VECTOR('',#71,1.);
#71 = DIRECTION('',(0.,0.,-1.));
#72 = ORIENTED_EDGE('',*,*,#73,.F.);
#73 = EDGE_CURVE('',#48,#66,#74,.T.);
#74 = LINE('',#75,#76);
#75 = CARTESIAN_POINT('',(3.05,1.387778780781E-15,6.25));
#76 = VECTOR('',#77,1.);
#77 = DIRECTION('',(0.,1.,-2.22044604925E-16));
#78 = PLANE('',#79);
#79 = AXIS2_PLACEMENT_3D('',#80,#81,#82);
#80 = CARTESIAN_POINT('',(3.05,-1.387778780781E-15,-6.25));
#81 = DIRECTION('',(1.,0.,0.));
#82 = DIRECTION('',(0.,2.22044604925E-16,1.));
#83 = ADVANCED_FACE('',(#84),#109,.T.);
#84 = FACE_BOUND('',#85,.T.);
#85 = EDGE_LOOP('',(#86,#87,#95,#103));
#86 = ORIENTED_EDGE('',*,*,#47,.F.);
#87 = ORIENTED_EDGE('',*,*,#88,.F.);
#88 = EDGE_CURVE('',#89,#48,#91,.T.);
#89 = VERTEX_POINT('',#90);
#90 = CARTESIAN_POINT('',(2.991190756073,0.11,6.191190756069));
#91 = LINE('',#92,#93);
#92 = CARTESIAN_POINT('',(3.170451704199,1.385507922795,6.370451704208)
  );
#93 = VECTOR('',#94,1.);
#94 = DIRECTION('',(0.137844537481,0.980814848465,0.137844537492));
#95 = ORIENTED_EDGE('',*,*,#96,.T.);
#96 = EDGE_CURVE('',#89,#97,#99,.T.);
#97 = VERTEX_POINT('',#98);
#98 = CARTESIAN_POINT('',(2.991190756073,0.11,-6.191190756069));
#99 = LINE('',#100,#101);
#100 = CARTESIAN_POINT('',(2.991190756073,0.11,7.0421015202));
#101 = VECTOR('',#102,1.);
#102 = DIRECTION('',(0.,0.,-1.));
#103 = ORIENTED_EDGE('',*,*,#104,.T.);
#104 = EDGE_CURVE('',#97,#50,#105,.T.);
#105 = LINE('',#106,#107);
#106 = CARTESIAN_POINT('',(2.902836121209,-0.518675893795,
    -6.102836121198));
#107 = VECTOR('',#108,1.);
#108 = DIRECTION('',(0.137844537481,0.980814848465,-0.137844537492));
#109 = PLANE('',#110);
#110 = AXIS2_PLACEMENT_3D('',#111,#112,#113);
#111 = CARTESIAN_POINT('',(2.990052238612,0.101899027327,14.084203040401
    ));
#112 = DIRECTION('',(0.990268068743,-0.13917310095,0.));
#113 = DIRECTION('',(0.13917310095,0.990268068743,0.));
#114 = ADVANCED_FACE('',(#115),#140,.T.);
#115 = FACE_BOUND('',#116,.T.);
#116 = EDGE_LOOP('',(#117,#125,#126,#134));
#117 = ORIENTED_EDGE('',*,*,#118,.F.);
#118 = EDGE_CURVE('',#48,#119,#121,.T.);
#119 = VERTEX_POINT('',#120);
#120 = CARTESIAN_POINT('',(-3.05,0.528449513664,6.25));
#121 = LINE('',#122,#123);
#122 = CARTESIAN_POINT('',(14.084203040401,0.528449513664,6.25));
#123 = VECTOR('',#124,1.);
#124 = DIRECTION('',(-1.,0.,0.));
#125 = ORIENTED_EDGE('',*,*,#73,.T.);
#126 = ORIENTED_EDGE('',*,*,#127,.T.);
#127 = EDGE_CURVE('',#66,#128,#130,.T.);
#128 = VERTEX_POINT('',#129);
#129 = CARTESIAN_POINT('',(-3.05,0.673449513664,6.25));
#130 = LINE('',#131,#132);
#131 = CARTESIAN_POINT('',(14.084203040401,0.673449513664,6.25));
#132 = VECTOR('',#133,1.);
#133 = DIRECTION('',(-1.,0.,0.));
#134 = ORIENTED_EDGE('',*,*,#135,.F.);
#135 = EDGE_CURVE('',#119,#128,#136,.T.);
#136 = LINE('',#137,#138);
#137 = CARTESIAN_POINT('',(-3.05,1.387778780781E-15,6.25));
#138 = VECTOR('',#139,1.);
#139 = DIRECTION('',(0.,1.,-2.22044604925E-16));
#140 = PLANE('',#141);
#141 = AXIS2_PLACEMENT_3D('',#142,#143,#144);
#142 = CARTESIAN_POINT('',(3.05,1.387778780781E-15,6.25));
#143 = DIRECTION('',(0.,2.22044604925E-16,1.));
#144 = DIRECTION('',(-1.,0.,0.));
#145 = ADVANCED_FACE('',(#146),#171,.F.);
#146 = FACE_BOUND('',#147,.F.);
#147 = EDGE_LOOP('',(#148,#149,#157,#165));
#148 = ORIENTED_EDGE('',*,*,#65,.F.);
#149 = ORIENTED_EDGE('',*,*,#150,.F.);
#150 = EDGE_CURVE('',#151,#66,#153,.T.);
#151 = VERTEX_POINT('',#152);
#152 = CARTESIAN_POINT('',(2.990052238612,1.1,6.190052238608));
#153 = LINE('',#154,#155);
#154 = CARTESIAN_POINT('',(3.199856047693,-0.392831670891,6.399856047705
    ));
#155 = VECTOR('',#156,1.);
#156 = DIRECTION('',(0.137844537481,-0.980814848465,0.137844537492));
#157 = ORIENTED_EDGE('',*,*,#158,.T.);
#158 = EDGE_CURVE('',#151,#159,#161,.T.);
#159 = VERTEX_POINT('',#160);
#160 = CARTESIAN_POINT('',(2.990052238612,1.1,-6.190052238608));
#161 = LINE('',#162,#163);
#162 = CARTESIAN_POINT('',(2.990052238612,1.1,14.084203040401));
#163 = VECTOR('',#164,1.);
#164 = DIRECTION('',(0.,0.,-1.));
#165 = ORIENTED_EDGE('',*,*,#166,.T.);
#166 = EDGE_CURVE('',#159,#58,#167,.T.);
#167 = LINE('',#168,#169);
#168 = CARTESIAN_POINT('',(2.932240464703,1.5113521457,-6.132240464694)
  );
#169 = VECTOR('',#170,1.);
#170 = DIRECTION('',(0.137844537481,-0.980814848465,-0.137844537492));
#171 = PLANE('',#172);
#172 = AXIS2_PLACEMENT_3D('',#173,#174,#175);
#173 = CARTESIAN_POINT('',(2.990052238612,1.1,14.084203040401));
#174 = DIRECTION('',(-0.990268068743,-0.13917310095,0.));
#175 = DIRECTION('',(0.13917310095,-0.990268068743,0.));
#176 = ADVANCED_FACE('',(#177),#202,.T.);
#177 = FACE_BOUND('',#178,.T.);
#178 = EDGE_LOOP('',(#179,#187,#195,#201));
#179 = ORIENTED_EDGE('',*,*,#180,.T.);
#180 = EDGE_CURVE('',#50,#181,#183,.T.);
#181 = VERTEX_POINT('',#182);
#182 = CARTESIAN_POINT('',(-3.05,0.528449513664,-6.25));
#183 = LINE('',#184,#185);
#184 = CARTESIAN_POINT('',(14.084203040401,0.528449513664,-6.25));
#185 = VECTOR('',#186,1.);
#186 = DIRECTION('',(-1.,0.,0.));
#187 = ORIENTED_EDGE('',*,*,#188,.T.);
#188 = EDGE_CURVE('',#181,#189,#191,.T.);
#189 = VERTEX_POINT('',#190);
#190 = CARTESIAN_POINT('',(-3.05,0.673449513664,-6.25));
#191 = LINE('',#192,#193);
#192 = CARTESIAN_POINT('',(-3.05,-1.387778780781E-15,-6.25));
#193 = VECTOR('',#194,1.);
#194 = DIRECTION('',(0.,1.,-2.22044604925E-16));
#195 = ORIENTED_EDGE('',*,*,#196,.F.);
#196 = EDGE_CURVE('',#58,#189,#197,.T.);
#197 = LINE('',#198,#199);
#198 = CARTESIAN_POINT('',(14.084203040401,0.673449513664,-6.25));
#199 = VECTOR('',#200,1.);
#200 = DIRECTION('',(-1.,0.,0.));
#201 = ORIENTED_EDGE('',*,*,#57,.F.);
#202 = PLANE('',#203);
#203 = AXIS2_PLACEMENT_3D('',#204,#205,#206);
#204 = CARTESIAN_POINT('',(-3.05,-1.387778780781E-15,-6.25));
#205 = DIRECTION('',(0.,-2.22044604925E-16,-1.));
#206 = DIRECTION('',(1.,0.,0.));
#207 = ADVANCED_FACE('',(#208),#226,.F.);
#208 = FACE_BOUND('',#209,.T.);
#209 = EDGE_LOOP('',(#210,#211,#212,#220));
#210 = ORIENTED_EDGE('',*,*,#180,.F.);
#211 = ORIENTED_EDGE('',*,*,#104,.F.);
#212 = ORIENTED_EDGE('',*,*,#213,.T.);
#213 = EDGE_CURVE('',#97,#214,#216,.T.);
#214 = VERTEX_POINT('',#215);
#215 = CARTESIAN_POINT('',(-2.991190756073,0.11,-6.191190756069));
#216 = LINE('',#217,#218);
#217 = CARTESIAN_POINT('',(7.0421015202,0.11,-6.191190756069));
#218 = VECTOR('',#219,1.);
#219 = DIRECTION('',(-1.,0.,0.));
#220 = ORIENTED_EDGE('',*,*,#221,.T.);
#221 = EDGE_CURVE('',#214,#181,#222,.T.);
#222 = LINE('',#223,#224);
#223 = CARTESIAN_POINT('',(-2.63522053824,-2.42285971024,-5.835220538208
    ));
#224 = VECTOR('',#225,1.);
#225 = DIRECTION('',(-0.137844537481,0.980814848465,-0.137844537492));
#226 = PLANE('',#227);
#227 = AXIS2_PLACEMENT_3D('',#228,#229,#230);
#228 = CARTESIAN_POINT('',(14.084203040401,0.101899027327,
    -6.190052238608));
#229 = DIRECTION('',(0.,0.13917310096,0.990268068742));
#230 = DIRECTION('',(0.,-0.990268068742,0.13917310096));
#231 = ADVANCED_FACE('',(#232),#250,.F.);
#232 = FACE_BOUND('',#233,.F.);
#233 = EDGE_LOOP('',(#234,#242,#243,#244));
#234 = ORIENTED_EDGE('',*,*,#235,.F.);
#235 = EDGE_CURVE('',#89,#236,#238,.T.);
#236 = VERTEX_POINT('',#237);
#237 = CARTESIAN_POINT('',(-2.991190756073,0.11,6.191190756069));
#238 = LINE('',#239,#240);
#239 = CARTESIAN_POINT('',(7.0421015202,0.11,6.191190756069));
#240 = VECTOR('',#241,1.);
#241 = DIRECTION('',(-1.,0.,0.));
#242 = ORIENTED_EDGE('',*,*,#96,.T.);
#243 = ORIENTED_EDGE('',*,*,#213,.T.);
#244 = ORIENTED_EDGE('',*,*,#245,.F.);
#245 = EDGE_CURVE('',#236,#214,#246,.T.);
#246 = LINE('',#247,#248);
#247 = CARTESIAN_POINT('',(-2.991190756073,0.11,7.0421015202));
#248 = VECTOR('',#249,1.);
#249 = DIRECTION('',(2.22044604925E-16,0.,-1.));
#250 = PLANE('',#251);
#251 = AXIS2_PLACEMENT_3D('',#252,#253,#254);
#252 = CARTESIAN_POINT('',(0.,0.11,-2.775557561563E-17));
#253 = DIRECTION('',(0.,1.,0.));
#254 = DIRECTION('',(0.,0.,1.));
#255 = ADVANCED_FACE('',(#256),#267,.F.);
#256 = FACE_BOUND('',#257,.F.);
#257 = EDGE_LOOP('',(#258,#259,#260,#261));
#258 = ORIENTED_EDGE('',*,*,#118,.F.);
#259 = ORIENTED_EDGE('',*,*,#88,.F.);
#260 = ORIENTED_EDGE('',*,*,#235,.T.);
#261 = ORIENTED_EDGE('',*,*,#262,.T.);
#262 = EDGE_CURVE('',#236,#119,#263,.T.);
#263 = LINE('',#264,#265);
#264 = CARTESIAN_POINT('',(-2.902836121229,-0.518675893649,
    6.102836121218));
#265 = VECTOR('',#266,1.);
#266 = DIRECTION('',(-0.137844537481,0.980814848465,0.137844537492));
#267 = PLANE('',#268);
#268 = AXIS2_PLACEMENT_3D('',#269,#270,#271);
#269 = CARTESIAN_POINT('',(14.084203040401,0.101899027327,6.190052238608
    ));
#270 = DIRECTION('',(0.,0.13917310096,-0.990268068742));
#271 = DIRECTION('',(0.,0.990268068742,0.13917310096));
#272 = ADVANCED_FACE('',(#273),#289,.T.);
#273 = FACE_BOUND('',#274,.T.);
#274 = EDGE_LOOP('',(#275,#281,#282,#288));
#275 = ORIENTED_EDGE('',*,*,#276,.F.);
#276 = EDGE_CURVE('',#119,#181,#277,.T.);
#277 = LINE('',#278,#279);
#278 = CARTESIAN_POINT('',(-3.05,0.528449513664,14.084203040401));
#279 = VECTOR('',#280,1.);
#280 = DIRECTION('',(2.22044604925E-16,0.,-1.));
#281 = ORIENTED_EDGE('',*,*,#135,.T.);
#282 = ORIENTED_EDGE('',*,*,#283,.T.);
#283 = EDGE_CURVE('',#128,#189,#284,.T.);
#284 = LINE('',#285,#286);
#285 = CARTESIAN_POINT('',(-3.05,0.673449513664,14.084203040401));
#286 = VECTOR('',#287,1.);
#287 = DIRECTION('',(2.22044604925E-16,0.,-1.));
#288 = ORIENTED_EDGE('',*,*,#188,.F.);
#289 = PLANE('',#290);
#290 = AXIS2_PLACEMENT_3D('',#291,#292,#293);
#291 = CARTESIAN_POINT('',(-3.05,1.387778780781E-15,6.25));
#292 = DIRECTION('',(-1.,0.,0.));
#293 = DIRECTION('',(0.,-2.22044604925E-16,-1.));
#294 = ADVANCED_FACE('',(#295),#313,.F.);
#295 = FACE_BOUND('',#296,.F.);
#296 = EDGE_LOOP('',(#297,#298,#299,#307));
#297 = ORIENTED_EDGE('',*,*,#150,.T.);
#298 = ORIENTED_EDGE('',*,*,#127,.T.);
#299 = ORIENTED_EDGE('',*,*,#300,.F.);
#300 = EDGE_CURVE('',#301,#128,#303,.T.);
#301 = VERTEX_POINT('',#302);
#302 = CARTESIAN_POINT('',(-2.990052238612,1.1,6.190052238608));
#303 = LINE('',#304,#305);
#304 = CARTESIAN_POINT('',(-2.932240464724,1.511352145554,6.132240464715
    ));
#305 = VECTOR('',#306,1.);
#306 = DIRECTION('',(-0.137844537481,-0.980814848465,0.137844537492));
#307 = ORIENTED_EDGE('',*,*,#308,.F.);
#308 = EDGE_CURVE('',#151,#301,#309,.T.);
#309 = LINE('',#310,#311);
#310 = CARTESIAN_POINT('',(14.084203040401,1.1,6.190052238608));
#311 = VECTOR('',#312,1.);
#312 = DIRECTION('',(-1.,0.,0.));
#313 = PLANE('',#314);
#314 = AXIS2_PLACEMENT_3D('',#315,#316,#317);
#315 = CARTESIAN_POINT('',(14.084203040401,0.673449513664,6.25));
#316 = DIRECTION('',(0.,-0.13917310096,-0.990268068742));
#317 = DIRECTION('',(0.,0.990268068742,-0.13917310096));
#318 = ADVANCED_FACE('',(#319),#337,.F.);
#319 = FACE_BOUND('',#320,.T.);
#320 = EDGE_LOOP('',(#321,#322,#323,#331));
#321 = ORIENTED_EDGE('',*,*,#166,.T.);
#322 = ORIENTED_EDGE('',*,*,#196,.T.);
#323 = ORIENTED_EDGE('',*,*,#324,.F.);
#324 = EDGE_CURVE('',#325,#189,#327,.T.);
#325 = VERTEX_POINT('',#326);
#326 = CARTESIAN_POINT('',(-2.990052238612,1.1,-6.190052238608));
#327 = LINE('',#328,#329);
#328 = CARTESIAN_POINT('',(-2.664624881734,3.415535962144,
    -5.864624881704));
#329 = VECTOR('',#330,1.);
#330 = DIRECTION('',(-0.137844537481,-0.980814848465,-0.137844537492));
#331 = ORIENTED_EDGE('',*,*,#332,.F.);
#332 = EDGE_CURVE('',#159,#325,#333,.T.);
#333 = LINE('',#334,#335);
#334 = CARTESIAN_POINT('',(14.084203040401,1.1,-6.190052238608));
#335 = VECTOR('',#336,1.);
#336 = DIRECTION('',(-1.,0.,0.));
#337 = PLANE('',#338);
#338 = AXIS2_PLACEMENT_3D('',#339,#340,#341);
#339 = CARTESIAN_POINT('',(14.084203040401,0.673449513664,-6.25));
#340 = DIRECTION('',(0.,-0.13917310096,0.990268068742));
#341 = DIRECTION('',(-0.,-0.990268068742,-0.13917310096));
#342 = ADVANCED_FACE('',(#343),#354,.T.);
#343 = FACE_BOUND('',#344,.T.);
#344 = EDGE_LOOP('',(#345,#346,#347,#348));
#345 = ORIENTED_EDGE('',*,*,#308,.F.);
#346 = ORIENTED_EDGE('',*,*,#158,.T.);
#347 = ORIENTED_EDGE('',*,*,#332,.T.);
#348 = ORIENTED_EDGE('',*,*,#349,.F.);
#349 = EDGE_CURVE('',#301,#325,#350,.T.);
#350 = LINE('',#351,#352);
#351 = CARTESIAN_POINT('',(-2.990052238612,1.1,14.084203040401));
#352 = VECTOR('',#353,1.);
#353 = DIRECTION('',(2.22044604925E-16,0.,-1.));
#354 = PLANE('',#355);
#355 = AXIS2_PLACEMENT_3D('',#356,#357,#358);
#356 = CARTESIAN_POINT('',(0.,1.1,-2.22044604925E-16));
#357 = DIRECTION('',(0.,1.,0.));
#358 = DIRECTION('',(0.,0.,1.));
#359 = ADVANCED_FACE('',(#360),#366,.T.);
#360 = FACE_BOUND('',#361,.F.);
#361 = EDGE_LOOP('',(#362,#363,#364,#365));
#362 = ORIENTED_EDGE('',*,*,#276,.F.);
#363 = ORIENTED_EDGE('',*,*,#262,.F.);
#364 = ORIENTED_EDGE('',*,*,#245,.T.);
#365 = ORIENTED_EDGE('',*,*,#221,.T.);
#366 = PLANE('',#367);
#367 = AXIS2_PLACEMENT_3D('',#368,#369,#370);
#368 = CARTESIAN_POINT('',(-2.990052238612,0.101899027327,
    14.084203040401));
#369 = DIRECTION('',(-0.990268068743,-0.13917310095,-2.198836820939E-16)
  );
#370 = DIRECTION('',(0.13917310095,-0.990268068743,3.090263621654E-17));
#371 = ADVANCED_FACE('',(#372),#378,.F.);
#372 = FACE_BOUND('',#373,.T.);
#373 = EDGE_LOOP('',(#374,#375,#376,#377));
#374 = ORIENTED_EDGE('',*,*,#283,.F.);
#375 = ORIENTED_EDGE('',*,*,#300,.F.);
#376 = ORIENTED_EDGE('',*,*,#349,.T.);
#377 = ORIENTED_EDGE('',*,*,#324,.T.);
#378 = PLANE('',#379);
#379 = AXIS2_PLACEMENT_3D('',#380,#381,#382);
#380 = CARTESIAN_POINT('',(-2.990052238612,1.1,14.084203040401));
#381 = DIRECTION('',(0.990268068743,-0.13917310095,2.198836820939E-16));
#382 = DIRECTION('',(0.13917310095,0.990268068743,3.090263621654E-17));
#383 = ( GEOMETRIC_REPRESENTATION_CONTEXT(3) 
GLOBAL_UNCERTAINTY_ASSIGNED_CONTEXT((#387)) GLOBAL_UNIT_ASSIGNED_CONTEXT
((#384,#385,#386)) REPRESENTATION_CONTEXT('Context #1',
  '3D Context with UNIT and UNCERTAINTY') );
#384 = ( LENGTH_UNIT() NAMED_UNIT(*) SI_UNIT(.MILLI.,.METRE.) );
#385 = ( NAMED_UNIT(*) PLANE_ANGLE_UNIT() SI_UNIT($,.RADIAN.) );
#386 = ( NAMED_UNIT(*) SI_UNIT($,.STERADIAN.) SOLID_ANGLE_UNIT() );
#387 = UNCERTAINTY_MEASURE_WITH_UNIT(LENGTH_MEASURE(1.E-05),#384,
  'distance_accuracy_value','confusion accuracy');
#388 = CONTEXT_DEPENDENT_SHAPE_REPRESENTATION(#389,#391);
#389 = ( REPRESENTATION_RELATIONSHIP('','',#40,#10) 
REPRESENTATION_RELATIONSHIP_WITH_TRANSFORMATION(#390) 
SHAPE_REPRESENTATION_RELATIONSHIP() );
#390 = ITEM_DEFINED_TRANSFORMATION('','',#11,#15);
#391 = PRODUCT_DEFINITION_SHAPE('Placement','Placement of an item',#392
  );
#392 = NEXT_ASSEMBLY_USAGE_OCCURRENCE('1909','Body','',#5,#35,$);
#393 = PRODUCT_RELATED_PRODUCT_CATEGORY('part',$,(#37));
#394 = SHAPE_DEFINITION_REPRESENTATION(#395,#401);
#395 = PRODUCT_DEFINITION_SHAPE('','',#396);
#396 = PRODUCT_DEFINITION('design','',#397,#400);
#397 = PRODUCT_DEFINITION_FORMATION('','',#398);
#398 = PRODUCT('Array001','Array001','',(#399));
#399 = PRODUCT_CONTEXT('',#2,'mechanical');
#400 = PRODUCT_DEFINITION_CONTEXT('part definition',#2,'design');
#401 = SHAPE_REPRESENTATION('',(#11,#402,#406,#410,#414,#418,#422,#426,
    #430,#434,#438,#442,#446,#450,#454,#458,#462,#466,#470,#474,#478,
    #482,#486,#490,#494),#498);
#402 = AXIS2_PLACEMENT_3D('',#403,#404,#405);
#403 = CARTESIAN_POINT('',(0.,0.,5.75));
#404 = DIRECTION('',(0.,0.,1.));
#405 = DIRECTION('',(1.,0.,0.));
#406 = AXIS2_PLACEMENT_3D('',#407,#408,#409);
#407 = CARTESIAN_POINT('',(0.,0.,5.25));
#408 = DIRECTION('',(0.,0.,1.));
#409 = DIRECTION('',(1.,0.,0.));
#410 = AXIS2_PLACEMENT_3D('',#411,#412,#413);
#411 = CARTESIAN_POINT('',(0.,0.,4.75));
#412 = DIRECTION('',(0.,0.,1.));
#413 = DIRECTION('',(1.,0.,0.));
#414 = AXIS2_PLACEMENT_3D('',#415,#416,#417);
#415 = CARTESIAN_POINT('',(0.,0.,4.25));
#416 = DIRECTION('',(0.,0.,1.));
#417 = DIRECTION('',(1.,0.,0.));
#418 = AXIS2_PLACEMENT_3D('',#419,#420,#421);
#419 = CARTESIAN_POINT('',(0.,0.,3.75));
#420 = DIRECTION('',(0.,0.,1.));
#421 = DIRECTION('',(1.,0.,0.));
#422 = AXIS2_PLACEMENT_3D('',#423,#424,#425);
#423 = CARTESIAN_POINT('',(0.,0.,3.25));
#424 = DIRECTION('',(0.,0.,1.));
#425 = DIRECTION('',(1.,0.,0.));
#426 = AXIS2_PLACEMENT_3D('',#427,#428,#429);
#427 = CARTESIAN_POINT('',(0.,0.,2.75));
#428 = DIRECTION('',(0.,0.,1.));
#429 = DIRECTION('',(1.,0.,0.));
#430 = AXIS2_PLACEMENT_3D('',#431,#432,#433);
#431 = CARTESIAN_POINT('',(0.,0.,2.25));
#432 = DIRECTION('',(0.,0.,1.));
#433 = DIRECTION('',(1.,0.,0.));
#434 = AXIS2_PLACEMENT_3D('',#435,#436,#437);
#435 = CARTESIAN_POINT('',(0.,0.,1.75));
#436 = DIRECTION('',(0.,0.,1.));
#437 = DIRECTION('',(1.,0.,0.));
#438 = AXIS2_PLACEMENT_3D('',#439,#440,#441);
#439 = CARTESIAN_POINT('',(0.,0.,1.25));
#440 = DIRECTION('',(0.,0.,1.));
#441 = DIRECTION('',(1.,0.,0.));
#442 = AXIS2_PLACEMENT_3D('',#443,#444,#445);
#443 = CARTESIAN_POINT('',(0.,0.,0.75));
#444 = DIRECTION('',(0.,0.,1.));
#445 = DIRECTION('',(1.,0.,0.));
#446 = AXIS2_PLACEMENT_3D('',#447,#448,#449);
#447 = CARTESIAN_POINT('',(0.,0.,0.25));
#448 = DIRECTION('',(0.,0.,1.));
#449 = DIRECTION('',(1.,0.,0.));
#450 = AXIS2_PLACEMENT_3D('',#451,#452,#453);
#451 = CARTESIAN_POINT('',(0.,0.,-0.25));
#452 = DIRECTION('',(0.,0.,1.));
#453 = DIRECTION('',(1.,0.,0.));
#454 = AXIS2_PLACEMENT_3D('',#455,#456,#457);
#455 = CARTESIAN_POINT('',(0.,0.,-0.75));
#456 = DIRECTION('',(0.,0.,1.));
#457 = DIRECTION('',(1.,0.,0.));
#458 = AXIS2_PLACEMENT_3D('',#459,#460,#461);
#459 = CARTESIAN_POINT('',(0.,0.,-1.25));
#460 = DIRECTION('',(0.,0.,1.));
#461 = DIRECTION('',(1.,0.,0.));
#462 = AXIS2_PLACEMENT_3D('',#463,#464,#465);
#463 = CARTESIAN_POINT('',(0.,0.,-1.75));
#464 = DIRECTION('',(0.,0.,1.));
#465 = DIRECTION('',(1.,0.,0.));
#466 = AXIS2_PLACEMENT_3D('',#467,#468,#469);
#467 = CARTESIAN_POINT('',(0.,0.,-2.25));
#468 = DIRECTION('',(0.,0.,1.));
#469 = DIRECTION('',(1.,0.,0.));
#470 = AXIS2_PLACEMENT_3D('',#471,#472,#473);
#471 = CARTESIAN_POINT('',(0.,0.,-2.75));
#472 = DIRECTION('',(0.,0.,1.));
#473 = DIRECTION('',(1.,0.,0.));
#474 = AXIS2_PLACEMENT_3D('',#475,#476,#477);
#475 = CARTESIAN_POINT('',(0.,0.,-3.25));
#476 = DIRECTION('',(0.,0.,1.));
#477 = DIRECTION('',(1.,0.,0.));
#478 = AXIS2_PLACEMENT_3D('',#479,#480,#481);
#479 = CARTESIAN_POINT('',(0.,0.,-3.75));
#480 = DIRECTION('',(0.,0.,1.));
#481 = DIRECTION('',(1.,0.,0.));
#482 = AXIS2_PLACEMENT_3D('',#483,#484,#485);
#483 = CARTESIAN_POINT('',(0.,0.,-4.25));
#484 = DIRECTION('',(0.,0.,1.));
#485 = DIRECTION('',(1.,0.,0.));
#486 = AXIS2_PLACEMENT_3D('',#487,#488,#489);
#487 = CARTESIAN_POINT('',(0.,0.,-4.75));
#488 = DIRECTION('',(0.,0.,1.));
#489 = DIRECTION('',(1.,0.,0.));
#490 = AXIS2_PLACEMENT_3D('',#491,#492,#493);
#491 = CARTESIAN_POINT('',(0.,0.,-5.25));
#492 = DIRECTION('',(0.,0.,1.));
#493 = DIRECTION('',(1.,0.,0.));
#494 = AXIS2_PLACEMENT_3D('',#495,#496,#497);
#495 = CARTESIAN_POINT('',(0.,0.,-5.75));
#496 = DIRECTION('',(0.,0.,1.));
#497 = DIRECTION('',(1.,0.,0.));
#498 = ( GEOMETRIC_REPRESENTATION_CONTEXT(3) 
GLOBAL_UNCERTAINTY_ASSIGNED_CONTEXT((#502)) GLOBAL_UNIT_ASSIGNED_CONTEXT
((#499,#500,#501)) REPRESENTATION_CONTEXT('Context #1',
  '3D Context with UNIT and UNCERTAINTY') );
#499 = ( LENGTH_UNIT() NAMED_UNIT(*) SI_UNIT(.MILLI.,.METRE.) );
#500 = ( NAMED_UNIT(*) PLANE_ANGLE_UNIT() SI_UNIT($,.RADIAN.) );
#501 = ( NAMED_UNIT(*) SI_UNIT($,.STERADIAN.) SOLID_ANGLE_UNIT() );
#502 = UNCERTAINTY_MEASURE_WITH_UNIT(LENGTH_MEASURE(1.E-07),#499,
  'distance_accuracy_value','confusion accuracy');
#503 = CONTEXT_DEPENDENT_SHAPE_REPRESENTATION(#504,#506);
#504 = ( REPRESENTATION_RELATIONSHIP('','',#401,#10) 
REPRESENTATION_RELATIONSHIP_WITH_TRANSFORMATION(#505) 
SHAPE_REPRESENTATION_RELATIONSHIP() );
#505 = ITEM_DEFINED_TRANSFORMATION('','',#11,#19);
#506 = PRODUCT_DEFINITION_SHAPE('Placement','Placement of an item',#507
  );
#507 = NEXT_ASSEMBLY_USAGE_OCCURRENCE('1934','Array001','',#5,#396,$);
#508 = PRODUCT_RELATED_PRODUCT_CATEGORY('part',$,(#398));
#509 = SHAPE_DEFINITION_REPRESENTATION(#510,#516);
#510 = PRODUCT_DEFINITION_SHAPE('','',#511);
#511 = PRODUCT_DEFINITION('design','',#512,#515);
#512 = PRODUCT_DEFINITION_FORMATION('','',#513);
#513 = PRODUCT('Body001','Body001','',(#514));
#514 = PRODUCT_CONTEXT('',#2,'mechanical');
#515 = PRODUCT_DEFINITION_CONTEXT('part definition',#2,'design');
#516 = ADVANCED_BREP_SHAPE_REPRESENTATION('',(#11,#517),#799);
#517 = MANIFOLD_SOLID_BREP('',#518);
#518 = CLOSED_SHELL('',(#519,#559,#590,#621,#652,#683,#714,#745,#767,
    #783));
#519 = ADVANCED_FACE('',(#520),#554,.F.);
#520 = FACE_BOUND('',#521,.F.);
#521 = EDGE_LOOP('',(#522,#532,#540,#548));
#522 = ORIENTED_EDGE('',*,*,#523,.T.);
#523 = EDGE_CURVE('',#524,#526,#528,.T.);
#524 = VERTEX_POINT('',#525);
#525 = CARTESIAN_POINT('',(3.05,0.528449513664,-0.11));
#526 = VERTEX_POINT('',#527);
#527 = CARTESIAN_POINT('',(3.05,0.528449513664,0.11));
#528 = LINE('',#529,#530);
#529 = CARTESIAN_POINT('',(3.05,0.528449513664,-0.11));
#530 = VECTOR('',#531,1.);
#531 = DIRECTION('',(0.,0.,1.));
#532 = ORIENTED_EDGE('',*,*,#533,.T.);
#533 = EDGE_CURVE('',#526,#534,#536,.T.);
#534 = VERTEX_POINT('',#535);
#535 = CARTESIAN_POINT('',(3.15,0.528449513664,0.11));
#536 = LINE('',#537,#538);
#537 = CARTESIAN_POINT('',(3.05,0.528449513664,0.11));
#538 = VECTOR('',#539,1.);
#539 = DIRECTION('',(1.,0.,0.));
#540 = ORIENTED_EDGE('',*,*,#541,.F.);
#541 = EDGE_CURVE('',#542,#534,#544,.T.);
#542 = VERTEX_POINT('',#543);
#543 = CARTESIAN_POINT('',(3.15,0.528449513664,-0.11));
#544 = LINE('',#545,#546);
#545 = CARTESIAN_POINT('',(3.15,0.528449513664,-0.11));
#546 = VECTOR('',#547,1.);
#547 = DIRECTION('',(0.,0.,1.));
#548 = ORIENTED_EDGE('',*,*,#549,.F.);
#549 = EDGE_CURVE('',#524,#542,#550,.T.);
#550 = LINE('',#551,#552);
#551 = CARTESIAN_POINT('',(3.05,0.528449513664,-0.11));
#552 = VECTOR('',#553,1.);
#553 = DIRECTION('',(1.,0.,0.));
#554 = PLANE('',#555);
#555 = AXIS2_PLACEMENT_3D('',#556,#557,#558);
#556 = CARTESIAN_POINT('',(3.05,0.528449513664,-0.11));
#557 = DIRECTION('',(0.,1.,0.));
#558 = DIRECTION('',(1.,0.,0.));
#559 = ADVANCED_FACE('',(#560),#585,.F.);
#560 = FACE_BOUND('',#561,.F.);
#561 = EDGE_LOOP('',(#562,#563,#571,#579));
#562 = ORIENTED_EDGE('',*,*,#541,.T.);
#563 = ORIENTED_EDGE('',*,*,#564,.T.);
#564 = EDGE_CURVE('',#534,#565,#567,.T.);
#565 = VERTEX_POINT('',#566);
#566 = CARTESIAN_POINT('',(3.45,0.,0.11));
#567 = LINE('',#568,#569);
#568 = CARTESIAN_POINT('',(3.15,0.528449513664,0.11));
#569 = VECTOR('',#570,1.);
#570 = DIRECTION('',(0.493691642939,-0.869637028703,0.));
#571 = ORIENTED_EDGE('',*,*,#572,.F.);
#572 = EDGE_CURVE('',#573,#565,#575,.T.);
#573 = VERTEX_POINT('',#574);
#574 = CARTESIAN_POINT('',(3.45,0.,-0.11));
#575 = LINE('',#576,#577);
#576 = CARTESIAN_POINT('',(3.45,0.,-0.11));
#577 = VECTOR('',#578,1.);
#578 = DIRECTION('',(0.,0.,1.));
#579 = ORIENTED_EDGE('',*,*,#580,.F.);
#580 = EDGE_CURVE('',#542,#573,#581,.T.);
#581 = LINE('',#582,#583);
#582 = CARTESIAN_POINT('',(3.15,0.528449513664,-0.11));
#583 = VECTOR('',#584,1.);
#584 = DIRECTION('',(0.493691642939,-0.869637028703,0.));
#585 = PLANE('',#586);
#586 = AXIS2_PLACEMENT_3D('',#587,#588,#589);
#587 = CARTESIAN_POINT('',(3.15,0.528449513664,-0.11));
#588 = DIRECTION('',(0.869637028703,0.493691642939,0.));
#589 = DIRECTION('',(0.493691642939,-0.869637028703,0.));
#590 = ADVANCED_FACE('',(#591),#616,.F.);
#591 = FACE_BOUND('',#592,.F.);
#592 = EDGE_LOOP('',(#593,#594,#602,#610));
#593 = ORIENTED_EDGE('',*,*,#572,.T.);
#594 = ORIENTED_EDGE('',*,*,#595,.T.);
#595 = EDGE_CURVE('',#565,#596,#598,.T.);
#596 = VERTEX_POINT('',#597);
#597 = CARTESIAN_POINT('',(4.05,0.,0.11));
#598 = LINE('',#599,#600);
#599 = CARTESIAN_POINT('',(3.45,0.,0.11));
#600 = VECTOR('',#601,1.);
#601 = DIRECTION('',(1.,0.,0.));
#602 = ORIENTED_EDGE('',*,*,#603,.F.);
#603 = EDGE_CURVE('',#604,#596,#606,.T.);
#604 = VERTEX_POINT('',#605);
#605 = CARTESIAN_POINT('',(4.05,0.,-0.11));
#606 = LINE('',#607,#608);
#607 = CARTESIAN_POINT('',(4.05,0.,-0.11));
#608 = VECTOR('',#609,1.);
#609 = DIRECTION('',(0.,0.,1.));
#610 = ORIENTED_EDGE('',*,*,#611,.F.);
#611 = EDGE_CURVE('',#573,#604,#612,.T.);
#612 = LINE('',#613,#614);
#613 = CARTESIAN_POINT('',(3.45,0.,-0.11));
#614 = VECTOR('',#615,1.);
#615 = DIRECTION('',(1.,0.,0.));
#616 = PLANE('',#617);
#617 = AXIS2_PLACEMENT_3D('',#618,#619,#620);
#618 = CARTESIAN_POINT('',(3.45,0.,-0.11));
#619 = DIRECTION('',(0.,1.,0.));
#620 = DIRECTION('',(1.,0.,0.));
#621 = ADVANCED_FACE('',(#622),#647,.F.);
#622 = FACE_BOUND('',#623,.F.);
#623 = EDGE_LOOP('',(#624,#625,#633,#641));
#624 = ORIENTED_EDGE('',*,*,#603,.T.);
#625 = ORIENTED_EDGE('',*,*,#626,.T.);
#626 = EDGE_CURVE('',#596,#627,#629,.T.);
#627 = VERTEX_POINT('',#628);
#628 = CARTESIAN_POINT('',(4.05,0.145,0.11));
#629 = LINE('',#630,#631);
#630 = CARTESIAN_POINT('',(4.05,0.,0.11));
#631 = VECTOR('',#632,1.);
#632 = DIRECTION('',(0.,1.,0.));
#633 = ORIENTED_EDGE('',*,*,#634,.F.);
#634 = EDGE_CURVE('',#635,#627,#637,.T.);
#635 = VERTEX_POINT('',#636);
#636 = CARTESIAN_POINT('',(4.05,0.145,-0.11));
#637 = LINE('',#638,#639);
#638 = CARTESIAN_POINT('',(4.05,0.145,-0.11));
#639 = VECTOR('',#640,1.);
#640 = DIRECTION('',(0.,0.,1.));
#641 = ORIENTED_EDGE('',*,*,#642,.F.);
#642 = EDGE_CURVE('',#604,#635,#643,.T.);
#643 = LINE('',#644,#645);
#644 = CARTESIAN_POINT('',(4.05,0.,-0.11));
#645 = VECTOR('',#646,1.);
#646 = DIRECTION('',(0.,1.,0.));
#647 = PLANE('',#648);
#648 = AXIS2_PLACEMENT_3D('',#649,#650,#651);
#649 = CARTESIAN_POINT('',(4.05,0.,-0.11));
#650 = DIRECTION('',(-1.,0.,0.));
#651 = DIRECTION('',(0.,1.,0.));
#652 = ADVANCED_FACE('',(#653),#678,.F.);
#653 = FACE_BOUND('',#654,.F.);
#654 = EDGE_LOOP('',(#655,#656,#664,#672));
#655 = ORIENTED_EDGE('',*,*,#634,.T.);
#656 = ORIENTED_EDGE('',*,*,#657,.T.);
#657 = EDGE_CURVE('',#627,#658,#660,.T.);
#658 = VERTEX_POINT('',#659);
#659 = CARTESIAN_POINT('',(3.534419946887,0.145,0.11));
#660 = LINE('',#661,#662);
#661 = CARTESIAN_POINT('',(4.05,0.145,0.11));
#662 = VECTOR('',#663,1.);
#663 = DIRECTION('',(-1.,0.,0.));
#664 = ORIENTED_EDGE('',*,*,#665,.F.);
#665 = EDGE_CURVE('',#666,#658,#668,.T.);
#666 = VERTEX_POINT('',#667);
#667 = CARTESIAN_POINT('',(3.534419946887,0.145,-0.11));
#668 = LINE('',#669,#670);
#669 = CARTESIAN_POINT('',(3.534419946887,0.145,-0.11));
#670 = VECTOR('',#671,1.);
#671 = DIRECTION('',(0.,0.,1.));
#672 = ORIENTED_EDGE('',*,*,#673,.F.);
#673 = EDGE_CURVE('',#635,#666,#674,.T.);
#674 = LINE('',#675,#676);
#675 = CARTESIAN_POINT('',(4.05,0.145,-0.11));
#676 = VECTOR('',#677,1.);
#677 = DIRECTION('',(-1.,0.,0.));
#678 = PLANE('',#679);
#679 = AXIS2_PLACEMENT_3D('',#680,#681,#682);
#680 = CARTESIAN_POINT('',(4.05,0.145,-0.11));
#681 = DIRECTION('',(0.,-1.,0.));
#682 = DIRECTION('',(-1.,0.,0.));
#683 = ADVANCED_FACE('',(#684),#709,.F.);
#684 = FACE_BOUND('',#685,.F.);
#685 = EDGE_LOOP('',(#686,#687,#695,#703));
#686 = ORIENTED_EDGE('',*,*,#665,.T.);
#687 = ORIENTED_EDGE('',*,*,#688,.T.);
#688 = EDGE_CURVE('',#658,#689,#691,.T.);
#689 = VERTEX_POINT('',#690);
#690 = CARTESIAN_POINT('',(3.234419946887,0.673449513664,0.11));
#691 = LINE('',#692,#693);
#692 = CARTESIAN_POINT('',(3.534419946887,0.145,0.11));
#693 = VECTOR('',#694,1.);
#694 = DIRECTION('',(-0.493691642939,0.869637028703,0.));
#695 = ORIENTED_EDGE('',*,*,#696,.F.);
#696 = EDGE_CURVE('',#697,#689,#699,.T.);
#697 = VERTEX_POINT('',#698);
#698 = CARTESIAN_POINT('',(3.234419946887,0.673449513664,-0.11));
#699 = LINE('',#700,#701);
#700 = CARTESIAN_POINT('',(3.234419946887,0.673449513664,-0.11));
#701 = VECTOR('',#702,1.);
#702 = DIRECTION('',(0.,0.,1.));
#703 = ORIENTED_EDGE('',*,*,#704,.F.);
#704 = EDGE_CURVE('',#666,#697,#705,.T.);
#705 = LINE('',#706,#707);
#706 = CARTESIAN_POINT('',(3.534419946887,0.145,-0.11));
#707 = VECTOR('',#708,1.);
#708 = DIRECTION('',(-0.493691642939,0.869637028703,0.));
#709 = PLANE('',#710);
#710 = AXIS2_PLACEMENT_3D('',#711,#712,#713);
#711 = CARTESIAN_POINT('',(3.534419946887,0.145,-0.11));
#712 = DIRECTION('',(-0.869637028703,-0.493691642939,0.));
#713 = DIRECTION('',(-0.493691642939,0.869637028703,0.));
#714 = ADVANCED_FACE('',(#715),#740,.F.);
#715 = FACE_BOUND('',#716,.F.);
#716 = EDGE_LOOP('',(#717,#718,#726,#734));
#717 = ORIENTED_EDGE('',*,*,#696,.T.);
#718 = ORIENTED_EDGE('',*,*,#719,.T.);
#719 = EDGE_CURVE('',#689,#720,#722,.T.);
#720 = VERTEX_POINT('',#721);
#721 = CARTESIAN_POINT('',(3.05,0.673449513664,0.11));
#722 = LINE('',#723,#724);
#723 = CARTESIAN_POINT('',(3.234419946887,0.673449513664,0.11));
#724 = VECTOR('',#725,1.);
#725 = DIRECTION('',(-1.,0.,0.));
#726 = ORIENTED_EDGE('',*,*,#727,.F.);
#727 = EDGE_CURVE('',#728,#720,#730,.T.);
#728 = VERTEX_POINT('',#729);
#729 = CARTESIAN_POINT('',(3.05,0.673449513664,-0.11));
#730 = LINE('',#731,#732);
#731 = CARTESIAN_POINT('',(3.05,0.673449513664,-0.11));
#732 = VECTOR('',#733,1.);
#733 = DIRECTION('',(0.,0.,1.));
#734 = ORIENTED_EDGE('',*,*,#735,.F.);
#735 = EDGE_CURVE('',#697,#728,#736,.T.);
#736 = LINE('',#737,#738);
#737 = CARTESIAN_POINT('',(3.234419946887,0.673449513664,-0.11));
#738 = VECTOR('',#739,1.);
#739 = DIRECTION('',(-1.,0.,0.));
#740 = PLANE('',#741);
#741 = AXIS2_PLACEMENT_3D('',#742,#743,#744);
#742 = CARTESIAN_POINT('',(3.234419946887,0.673449513664,-0.11));
#743 = DIRECTION('',(0.,-1.,0.));
#744 = DIRECTION('',(-1.,0.,0.));
#745 = ADVANCED_FACE('',(#746),#762,.F.);
#746 = FACE_BOUND('',#747,.F.);
#747 = EDGE_LOOP('',(#748,#749,#755,#756));
#748 = ORIENTED_EDGE('',*,*,#727,.T.);
#749 = ORIENTED_EDGE('',*,*,#750,.T.);
#750 = EDGE_CURVE('',#720,#526,#751,.T.);
#751 = LINE('',#752,#753);
#752 = CARTESIAN_POINT('',(3.05,0.673449513664,0.11));
#753 = VECTOR('',#754,1.);
#754 = DIRECTION('',(0.,-1.,0.));
#755 = ORIENTED_EDGE('',*,*,#523,.F.);
#756 = ORIENTED_EDGE('',*,*,#757,.F.);
#757 = EDGE_CURVE('',#728,#524,#758,.T.);
#758 = LINE('',#759,#760);
#759 = CARTESIAN_POINT('',(3.05,0.673449513664,-0.11));
#760 = VECTOR('',#761,1.);
#761 = DIRECTION('',(0.,-1.,0.));
#762 = PLANE('',#763);
#763 = AXIS2_PLACEMENT_3D('',#764,#765,#766);
#764 = CARTESIAN_POINT('',(3.05,0.673449513664,-0.11));
#765 = DIRECTION('',(1.,0.,0.));
#766 = DIRECTION('',(0.,-1.,0.));
#767 = ADVANCED_FACE('',(#768),#778,.F.);
#768 = FACE_BOUND('',#769,.F.);
#769 = EDGE_LOOP('',(#770,#771,#772,#773,#774,#775,#776,#777));
#770 = ORIENTED_EDGE('',*,*,#549,.T.);
#771 = ORIENTED_EDGE('',*,*,#580,.T.);
#772 = ORIENTED_EDGE('',*,*,#611,.T.);
#773 = ORIENTED_EDGE('',*,*,#642,.T.);
#774 = ORIENTED_EDGE('',*,*,#673,.T.);
#775 = ORIENTED_EDGE('',*,*,#704,.T.);
#776 = ORIENTED_EDGE('',*,*,#735,.T.);
#777 = ORIENTED_EDGE('',*,*,#757,.T.);
#778 = PLANE('',#779);
#779 = AXIS2_PLACEMENT_3D('',#780,#781,#782);
#780 = CARTESIAN_POINT('',(3.5059912255,0.261135129761,-0.11));
#781 = DIRECTION('',(0.,0.,1.));
#782 = DIRECTION('',(1.,0.,0.));
#783 = ADVANCED_FACE('',(#784),#794,.T.);
#784 = FACE_BOUND('',#785,.T.);
#785 = EDGE_LOOP('',(#786,#787,#788,#789,#790,#791,#792,#793));
#786 = ORIENTED_EDGE('',*,*,#533,.T.);
#787 = ORIENTED_EDGE('',*,*,#564,.T.);
#788 = ORIENTED_EDGE('',*,*,#595,.T.);
#789 = ORIENTED_EDGE('',*,*,#626,.T.);
#790 = ORIENTED_EDGE('',*,*,#657,.T.);
#791 = ORIENTED_EDGE('',*,*,#688,.T.);
#792 = ORIENTED_EDGE('',*,*,#719,.T.);
#793 = ORIENTED_EDGE('',*,*,#750,.T.);
#794 = PLANE('',#795);
#795 = AXIS2_PLACEMENT_3D('',#796,#797,#798);
#796 = CARTESIAN_POINT('',(3.5059912255,0.261135129761,0.11));
#797 = DIRECTION('',(0.,0.,1.));
#798 = DIRECTION('',(1.,0.,0.));
#799 = ( GEOMETRIC_REPRESENTATION_CONTEXT(3) 
GLOBAL_UNCERTAINTY_ASSIGNED_CONTEXT((#803)) GLOBAL_UNIT_ASSIGNED_CONTEXT
((#800,#801,#802)) REPRESENTATION_CONTEXT('Context #1',
  '3D Context with UNIT and UNCERTAINTY') );
#800 = ( LENGTH_UNIT() NAMED_UNIT(*) SI_UNIT(.MILLI.,.METRE.) );
#801 = ( NAMED_UNIT(*) PLANE_ANGLE_UNIT() SI_UNIT($,.RADIAN.) );
#802 = ( NAMED_UNIT(*) SI_UNIT($,.STERADIAN.) SOLID_ANGLE_UNIT() );
#803 = UNCERTAINTY_MEASURE_WITH_UNIT(LENGTH_MEASURE(1.E-07),#800,
  'distance_accuracy_value','confusion accuracy');
#804 = CONTEXT_DEPENDENT_SHAPE_REPRESENTATION(#805,#807);
#805 = ( REPRESENTATION_RELATIONSHIP('','',#516,#401) 
REPRESENTATION_RELATIONSHIP_WITH_TRANSFORMATION(#806) 
SHAPE_REPRESENTATION_RELATIONSHIP() );
#806 = ITEM_DEFINED_TRANSFORMATION('','',#11,#402);
#807 = PRODUCT_DEFINITION_SHAPE('Placement','Placement of an item',#808
  );
#808 = NEXT_ASSEMBLY_USAGE_OCCURRENCE('1910','0','',#396,#511,$);
#809 = PRODUCT_RELATED_PRODUCT_CATEGORY('part',$,(#513));
#810 = CONTEXT_DEPENDENT_SHAPE_REPRESENTATION(#811,#813);
#811 = ( REPRESENTATION_RELATIONSHIP('','',#516,#401) 
REPRESENTATION_RELATIONSHIP_WITH_TRANSFORMATION(#812) 
SHAPE_REPRESENTATION_RELATIONSHIP() );
#812 = ITEM_DEFINED_TRANSFORMATION('','',#11,#406);
#813 = PRODUCT_DEFINITION_SHAPE('Placement','Placement of an item',#814
  );
#814 = NEXT_ASSEMBLY_USAGE_OCCURRENCE('1911','1','',#396,#511,$);
#815 = CONTEXT_DEPENDENT_SHAPE_REPRESENTATION(#816,#818);
#816 = ( REPRESENTATION_RELATIONSHIP('','',#516,#401) 
REPRESENTATION_RELATIONSHIP_WITH_TRANSFORMATION(#817) 
SHAPE_REPRESENTATION_RELATIONSHIP() );
#817 = ITEM_DEFINED_TRANSFORMATION('','',#11,#410);
#818 = PRODUCT_DEFINITION_SHAPE('Placement','Placement of an item',#819
  );
#819 = NEXT_ASSEMBLY_USAGE_OCCURRENCE('1912','2','',#396,#511,$);
#820 = CONTEXT_DEPENDENT_SHAPE_REPRESENTATION(#821,#823);
#821 = ( REPRESENTATION_RELATIONSHIP('','',#516,#401) 
REPRESENTATION_RELATIONSHIP_WITH_TRANSFORMATION(#822) 
SHAPE_REPRESENTATION_RELATIONSHIP() );
#822 = ITEM_DEFINED_TRANSFORMATION('','',#11,#414);
#823 = PRODUCT_DEFINITION_SHAPE('Placement','Placement of an item',#824
  );
#824 = NEXT_ASSEMBLY_USAGE_OCCURRENCE('1913','3','',#396,#511,$);
#825 = CONTEXT_DEPENDENT_SHAPE_REPRESENTATION(#826,#828);
#826 = ( REPRESENTATION_RELATIONSHIP('','',#516,#401) 
REPRESENTATION_RELATIONSHIP_WITH_TRANSFORMATION(#827) 
SHAPE_REPRESENTATION_RELATIONSHIP() );
#827 = ITEM_DEFINED_TRANSFORMATION('','',#11,#418);
#828 = PRODUCT_DEFINITION_SHAPE('Placement','Placement of an item',#829
  );
#829 = NEXT_ASSEMBLY_USAGE_OCCURRENCE('1914','4','',#396,#511,$);
#830 = CONTEXT_DEPENDENT_SHAPE_REPRESENTATION(#831,#833);
#831 = ( REPRESENTATION_RELATIONSHIP('','',#516,#401) 
REPRESENTATION_RELATIONSHIP_WITH_TRANSFORMATION(#832) 
SHAPE_REPRESENTATION_RELATIONSHIP() );
#832 = ITEM_DEFINED_TRANSFORMATION('','',#11,#422);
#833 = PRODUCT_DEFINITION_SHAPE('Placement','Placement of an item',#834
  );
#834 = NEXT_ASSEMBLY_USAGE_OCCURRENCE('1915','5','',#396,#511,$);
#835 = CONTEXT_DEPENDENT_SHAPE_REPRESENTATION(#836,#838);
#836 = ( REPRESENTATION_RELATIONSHIP('','',#516,#401) 
REPRESENTATION_RELATIONSHIP_WITH_TRANSFORMATION(#837) 
SHAPE_REPRESENTATION_RELATIONSHIP() );
#837 = ITEM_DEFINED_TRANSFORMATION('','',#11,#426);
#838 = PRODUCT_DEFINITION_SHAPE('Placement','Placement of an item',#839
  );
#839 = NEXT_ASSEMBLY_USAGE_OCCURRENCE('1916','6','',#396,#511,$);
#840 = CONTEXT_DEPENDENT_SHAPE_REPRESENTATION(#841,#843);
#841 = ( REPRESENTATION_RELATIONSHIP('','',#516,#401) 
REPRESENTATION_RELATIONSHIP_WITH_TRANSFORMATION(#842) 
SHAPE_REPRESENTATION_RELATIONSHIP() );
#842 = ITEM_DEFINED_TRANSFORMATION('','',#11,#430);
#843 = PRODUCT_DEFINITION_SHAPE('Placement','Placement of an item',#844
  );
#844 = NEXT_ASSEMBLY_USAGE_OCCURRENCE('1917','7','',#396,#511,$);
#845 = CONTEXT_DEPENDENT_SHAPE_REPRESENTATION(#846,#848);
#846 = ( REPRESENTATION_RELATIONSHIP('','',#516,#401) 
REPRESENTATION_RELATIONSHIP_WITH_TRANSFORMATION(#847) 
SHAPE_REPRESENTATION_RELATIONSHIP() );
#847 = ITEM_DEFINED_TRANSFORMATION('','',#11,#434);
#848 = PRODUCT_DEFINITION_SHAPE('Placement','Placement of an item',#849
  );
#849 = NEXT_ASSEMBLY_USAGE_OCCURRENCE('1918','8','',#396,#511,$);
#850 = CONTEXT_DEPENDENT_SHAPE_REPRESENTATION(#851,#853);
#851 = ( REPRESENTATION_RELATIONSHIP('','',#516,#401) 
REPRESENTATION_RELATIONSHIP_WITH_TRANSFORMATION(#852) 
SHAPE_REPRESENTATION_RELATIONSHIP() );
#852 = ITEM_DEFINED_TRANSFORMATION('','',#11,#438);
#853 = PRODUCT_DEFINITION_SHAPE('Placement','Placement of an item',#854
  );
#854 = NEXT_ASSEMBLY_USAGE_OCCURRENCE('1919','9','',#396,#511,$);
#855 = CONTEXT_DEPENDENT_SHAPE_REPRESENTATION(#856,#858);
#856 = ( REPRESENTATION_RELATIONSHIP('','',#516,#401) 
REPRESENTATION_RELATIONSHIP_WITH_TRANSFORMATION(#857) 
SHAPE_REPRESENTATION_RELATIONSHIP() );
#857 = ITEM_DEFINED_TRANSFORMATION('','',#11,#442);
#858 = PRODUCT_DEFINITION_SHAPE('Placement','Placement of an item',#859
  );
#859 = NEXT_ASSEMBLY_USAGE_OCCURRENCE('1920','10','',#396,#511,$);
#860 = CONTEXT_DEPENDENT_SHAPE_REPRESENTATION(#861,#863);
#861 = ( REPRESENTATION_RELATIONSHIP('','',#516,#401) 
REPRESENTATION_RELATIONSHIP_WITH_TRANSFORMATION(#862) 
SHAPE_REPRESENTATION_RELATIONSHIP() );
#862 = ITEM_DEFINED_TRANSFORMATION('','',#11,#446);
#863 = PRODUCT_DEFINITION_SHAPE('Placement','Placement of an item',#864
  );
#864 = NEXT_ASSEMBLY_USAGE_OCCURRENCE('1921','11','',#396,#511,$);
#865 = CONTEXT_DEPENDENT_SHAPE_REPRESENTATION(#866,#868);
#866 = ( REPRESENTATION_RELATIONSHIP('','',#516,#401) 
REPRESENTATION_RELATIONSHIP_WITH_TRANSFORMATION(#867) 
SHAPE_REPRESENTATION_RELATIONSHIP() );
#867 = ITEM_DEFINED_TRANSFORMATION('','',#11,#450);
#868 = PRODUCT_DEFINITION_SHAPE('Placement','Placement of an item',#869
  );
#869 = NEXT_ASSEMBLY_USAGE_OCCURRENCE('1922','12','',#396,#511,$);
#870 = CONTEXT_DEPENDENT_SHAPE_REPRESENTATION(#871,#873);
#871 = ( REPRESENTATION_RELATIONSHIP('','',#516,#401) 
REPRESENTATION_RELATIONSHIP_WITH_TRANSFORMATION(#872) 
SHAPE_REPRESENTATION_RELATIONSHIP() );
#872 = ITEM_DEFINED_TRANSFORMATION('','',#11,#454);
#873 = PRODUCT_DEFINITION_SHAPE('Placement','Placement of an item',#874
  );
#874 = NEXT_ASSEMBLY_USAGE_OCCURRENCE('1923','13','',#396,#511,$);
#875 = CONTEXT_DEPENDENT_SHAPE_REPRESENTATION(#876,#878);
#876 = ( REPRESENTATION_RELATIONSHIP('','',#516,#401) 
REPRESENTATION_RELATIONSHIP_WITH_TRANSFORMATION(#877) 
SHAPE_REPRESENTATION_RELATIONSHIP() );
#877 = ITEM_DEFINED_TRANSFORMATION('','',#11,#458);
#878 = PRODUCT_DEFINITION_SHAPE('Placement','Placement of an item',#879
  );
#879 = NEXT_ASSEMBLY_USAGE_OCCURRENCE('1924','14','',#396,#511,$);
#880 = CONTEXT_DEPENDENT_SHAPE_REPRESENTATION(#881,#883);
#881 = ( REPRESENTATION_RELATIONSHIP('','',#516,#401) 
REPRESENTATION_RELATIONSHIP_WITH_TRANSFORMATION(#882) 
SHAPE_REPRESENTATION_RELATIONSHIP() );
#882 = ITEM_DEFINED_TRANSFORMATION('','',#11,#462);
#883 = PRODUCT_DEFINITION_SHAPE('Placement','Placement of an item',#884
  );
#884 = NEXT_ASSEMBLY_USAGE_OCCURRENCE('1925','15','',#396,#511,$);
#885 = CONTEXT_DEPENDENT_SHAPE_REPRESENTATION(#886,#888);
#886 = ( REPRESENTATION_RELATIONSHIP('','',#516,#401) 
REPRESENTATION_RELATIONSHIP_WITH_TRANSFORMATION(#887) 
SHAPE_REPRESENTATION_RELATIONSHIP() );
#887 = ITEM_DEFINED_TRANSFORMATION('','',#11,#466);
#888 = PRODUCT_DEFINITION_SHAPE('Placement','Placement of an item',#889
  );
#889 = NEXT_ASSEMBLY_USAGE_OCCURRENCE('1926','16','',#396,#511,$);
#890 = CONTEXT_DEPENDENT_SHAPE_REPRESENTATION(#891,#893);
#891 = ( REPRESENTATION_RELATIONSHIP('','',#516,#401) 
REPRESENTATION_RELATIONSHIP_WITH_TRANSFORMATION(#892) 
SHAPE_REPRESENTATION_RELATIONSHIP() );
#892 = ITEM_DEFINED_TRANSFORMATION('','',#11,#470);
#893 = PRODUCT_DEFINITION_SHAPE('Placement','Placement of an item',#894
  );
#894 = NEXT_ASSEMBLY_USAGE_OCCURRENCE('1927','17','',#396,#511,$);
#895 = CONTEXT_DEPENDENT_SHAPE_REPRESENTATION(#896,#898);
#896 = ( REPRESENTATION_RELATIONSHIP('','',#516,#401) 
REPRESENTATION_RELATIONSHIP_WITH_TRANSFORMATION(#897) 
SHAPE_REPRESENTATION_RELATIONSHIP() );
#897 = ITEM_DEFINED_TRANSFORMATION('','',#11,#474);
#898 = PRODUCT_DEFINITION_SHAPE('Placement','Placement of an item',#899
  );
#899 = NEXT_ASSEMBLY_USAGE_OCCURRENCE('1928','18','',#396,#511,$);
#900 = CONTEXT_DEPENDENT_SHAPE_REPRESENTATION(#901,#903);
#901 = ( REPRESENTATION_RELATIONSHIP('','',#516,#401) 
REPRESENTATION_RELATIONSHIP_WITH_TRANSFORMATION(#902) 
SHAPE_REPRESENTATION_RELATIONSHIP() );
#902 = ITEM_DEFINED_TRANSFORMATION('','',#11,#478);
#903 = PRODUCT_DEFINITION_SHAPE('Placement','Placement of an item',#904
  );
#904 = NEXT_ASSEMBLY_USAGE_OCCURRENCE('1929','19','',#396,#511,$);
#905 = CONTEXT_DEPENDENT_SHAPE_REPRESENTATION(#906,#908);
#906 = ( REPRESENTATION_RELATIONSHIP('','',#516,#401) 
REPRESENTATION_RELATIONSHIP_WITH_TRANSFORMATION(#907) 
SHAPE_REPRESENTATION_RELATIONSHIP() );
#907 = ITEM_DEFINED_TRANSFORMATION('','',#11,#482);
#908 = PRODUCT_DEFINITION_SHAPE('Placement','Placement of an item',#909
  );
#909 = NEXT_ASSEMBLY_USAGE_OCCURRENCE('1930','20','',#396,#511,$);
#910 = CONTEXT_DEPENDENT_SHAPE_REPRESENTATION(#911,#913);
#911 = ( REPRESENTATION_RELATIONSHIP('','',#516,#401) 
REPRESENTATION_RELATIONSHIP_WITH_TRANSFORMATION(#912) 
SHAPE_REPRESENTATION_RELATIONSHIP() );
#912 = ITEM_DEFINED_TRANSFORMATION('','',#11,#486);
#913 = PRODUCT_DEFINITION_SHAPE('Placement','Placement of an item',#914
  );
#914 = NEXT_ASSEMBLY_USAGE_OCCURRENCE('1931','21','',#396,#511,$);
#915 = CONTEXT_DEPENDENT_SHAPE_REPRESENTATION(#916,#918);
#916 = ( REPRESENTATION_RELATIONSHIP('','',#516,#401) 
REPRESENTATION_RELATIONSHIP_WITH_TRANSFORMATION(#917) 
SHAPE_REPRESENTATION_RELATIONSHIP() );
#917 = ITEM_DEFINED_TRANSFORMATION('','',#11,#490);
#918 = PRODUCT_DEFINITION_SHAPE('Placement','Placement of an item',#919
  );
#919 = NEXT_ASSEMBLY_USAGE_OCCURRENCE('1932','22','',#396,#511,$);
#920 = CONTEXT_DEPENDENT_SHAPE_REPRESENTATION(#921,#923);
#921 = ( REPRESENTATION_RELATIONSHIP('','',#516,#401) 
REPRESENTATION_RELATIONSHIP_WITH_TRANSFORMATION(#922) 
SHAPE_REPRESENTATION_RELATIONSHIP() );
#922 = ITEM_DEFINED_TRANSFORMATION('','',#11,#494);
#923 = PRODUCT_DEFINITION_SHAPE('Placement','Placement of an item',#924
  );
#924 = NEXT_ASSEMBLY_USAGE_OCCURRENCE('1933','23','',#396,#511,$);
#925 = SHAPE_DEFINITION_REPRESENTATION(#926,#932);
#926 = PRODUCT_DEFINITION_SHAPE('','',#927);
#927 = PRODUCT_DEFINITION('design','',#928,#931);
#928 = PRODUCT_DEFINITION_FORMATION('','',#929);
#929 = PRODUCT('Array','Array','',(#930));
#930 = PRODUCT_CONTEXT('',#2,'mechanical');
#931 = PRODUCT_DEFINITION_CONTEXT('part definition',#2,'design');
#932 = SHAPE_REPRESENTATION('',(#11,#933,#937,#941,#945,#949,#953,#957,
    #961,#965,#969,#973,#977,#981,#985,#989,#993,#997,#1001,#1005,#1009,
    #1013,#1017,#1021,#1025),#1029);
#933 = AXIS2_PLACEMENT_3D('',#934,#935,#936);
#934 = CARTESIAN_POINT('',(0.,0.,0.));
#935 = DIRECTION('',(0.,0.,1.));
#936 = DIRECTION('',(1.,0.,0.));
#937 = AXIS2_PLACEMENT_3D('',#938,#939,#940);
#938 = CARTESIAN_POINT('',(0.,0.,-0.5));
#939 = DIRECTION('',(0.,0.,1.));
#940 = DIRECTION('',(1.,0.,0.));
#941 = AXIS2_PLACEMENT_3D('',#942,#943,#944);
#942 = CARTESIAN_POINT('',(0.,0.,-1.));
#943 = DIRECTION('',(0.,0.,1.));
#944 = DIRECTION('',(1.,0.,0.));
#945 = AXIS2_PLACEMENT_3D('',#946,#947,#948);
#946 = CARTESIAN_POINT('',(0.,0.,-1.5));
#947 = DIRECTION('',(0.,0.,1.));
#948 = DIRECTION('',(1.,0.,0.));
#949 = AXIS2_PLACEMENT_3D('',#950,#951,#952);
#950 = CARTESIAN_POINT('',(0.,0.,-2.));
#951 = DIRECTION('',(0.,0.,1.));
#952 = DIRECTION('',(1.,0.,0.));
#953 = AXIS2_PLACEMENT_3D('',#954,#955,#956);
#954 = CARTESIAN_POINT('',(0.,0.,-2.5));
#955 = DIRECTION('',(0.,0.,1.));
#956 = DIRECTION('',(1.,0.,0.));
#957 = AXIS2_PLACEMENT_3D('',#958,#959,#960);
#958 = CARTESIAN_POINT('',(0.,0.,-3.));
#959 = DIRECTION('',(0.,0.,1.));
#960 = DIRECTION('',(1.,0.,0.));
#961 = AXIS2_PLACEMENT_3D('',#962,#963,#964);
#962 = CARTESIAN_POINT('',(0.,0.,-3.5));
#963 = DIRECTION('',(0.,0.,1.));
#964 = DIRECTION('',(1.,0.,0.));
#965 = AXIS2_PLACEMENT_3D('',#966,#967,#968);
#966 = CARTESIAN_POINT('',(0.,0.,-4.));
#967 = DIRECTION('',(0.,0.,1.));
#968 = DIRECTION('',(1.,0.,0.));
#969 = AXIS2_PLACEMENT_3D('',#970,#971,#972);
#970 = CARTESIAN_POINT('',(0.,0.,-4.5));
#971 = DIRECTION('',(0.,0.,1.));
#972 = DIRECTION('',(1.,0.,0.));
#973 = AXIS2_PLACEMENT_3D('',#974,#975,#976);
#974 = CARTESIAN_POINT('',(0.,0.,-5.));
#975 = DIRECTION('',(0.,0.,1.));
#976 = DIRECTION('',(1.,0.,0.));
#977 = AXIS2_PLACEMENT_3D('',#978,#979,#980);
#978 = CARTESIAN_POINT('',(0.,0.,-5.5));
#979 = DIRECTION('',(0.,0.,1.));
#980 = DIRECTION('',(1.,0.,0.));
#981 = AXIS2_PLACEMENT_3D('',#982,#983,#984);
#982 = CARTESIAN_POINT('',(0.,0.,-6.));
#983 = DIRECTION('',(0.,0.,1.));
#984 = DIRECTION('',(1.,0.,0.));
#985 = AXIS2_PLACEMENT_3D('',#986,#987,#988);
#986 = CARTESIAN_POINT('',(0.,0.,-6.5));
#987 = DIRECTION('',(0.,0.,1.));
#988 = DIRECTION('',(1.,0.,0.));
#989 = AXIS2_PLACEMENT_3D('',#990,#991,#992);
#990 = CARTESIAN_POINT('',(0.,0.,-7.));
#991 = DIRECTION('',(0.,0.,1.));
#992 = DIRECTION('',(1.,0.,0.));
#993 = AXIS2_PLACEMENT_3D('',#994,#995,#996);
#994 = CARTESIAN_POINT('',(0.,0.,-7.5));
#995 = DIRECTION('',(0.,0.,1.));
#996 = DIRECTION('',(1.,0.,0.));
#997 = AXIS2_PLACEMENT_3D('',#998,#999,#1000);
#998 = CARTESIAN_POINT('',(0.,0.,-8.));
#999 = DIRECTION('',(0.,0.,1.));
#1000 = DIRECTION('',(1.,0.,0.));
#1001 = AXIS2_PLACEMENT_3D('',#1002,#1003,#1004);
#1002 = CARTESIAN_POINT('',(0.,0.,-8.5));
#1003 = DIRECTION('',(0.,0.,1.));
#1004 = DIRECTION('',(1.,0.,0.));
#1005 = AXIS2_PLACEMENT_3D('',#1006,#1007,#1008);
#1006 = CARTESIAN_POINT('',(0.,0.,-9.));
#1007 = DIRECTION('',(0.,0.,1.));
#1008 = DIRECTION('',(1.,0.,0.));
#1009 = AXIS2_PLACEMENT_3D('',#1010,#1011,#1012);
#1010 = CARTESIAN_POINT('',(0.,0.,-9.5));
#1011 = DIRECTION('',(0.,0.,1.));
#1012 = DIRECTION('',(1.,0.,0.));
#1013 = AXIS2_PLACEMENT_3D('',#1014,#1015,#1016);
#1014 = CARTESIAN_POINT('',(0.,0.,-10.));
#1015 = DIRECTION('',(0.,0.,1.));
#1016 = DIRECTION('',(1.,0.,0.));
#1017 = AXIS2_PLACEMENT_3D('',#1018,#1019,#1020);
#1018 = CARTESIAN_POINT('',(0.,0.,-10.5));
#1019 = DIRECTION('',(0.,0.,1.));
#1020 = DIRECTION('',(1.,0.,0.));
#1021 = AXIS2_PLACEMENT_3D('',#1022,#1023,#1024);
#1022 = CARTESIAN_POINT('',(0.,0.,-11.));
#1023 = DIRECTION('',(0.,0.,1.));
#1024 = DIRECTION('',(1.,0.,0.));
#1025 = AXIS2_PLACEMENT_3D('',#1026,#1027,#1028);
#1026 = CARTESIAN_POINT('',(0.,0.,-11.5));
#1027 = DIRECTION('',(0.,0.,1.));
#1028 = DIRECTION('',(1.,0.,0.));
#1029 = ( GEOMETRIC_REPRESENTATION_CONTEXT(3) 
GLOBAL_UNCERTAINTY_ASSIGNED_CONTEXT((#1033)) 
GLOBAL_UNIT_ASSIGNED_CONTEXT((#1030,#1031,#1032)) REPRESENTATION_CONTEXT
('Context #1','3D Context with UNIT and UNCERTAINTY') );
#1030 = ( LENGTH_UNIT() NAMED_UNIT(*) SI_UNIT(.MILLI.,.METRE.) );
#1031 = ( NAMED_UNIT(*) PLANE_ANGLE_UNIT() SI_UNIT($,.RADIAN.) );
#1032 = ( NAMED_UNIT(*) SI_UNIT($,.STERADIAN.) SOLID_ANGLE_UNIT() );
#1033 = UNCERTAINTY_MEASURE_WITH_UNIT(LENGTH_MEASURE(1.E-07),#1030,
  'distance_accuracy_value','confusion accuracy');
#1034 = CONTEXT_DEPENDENT_SHAPE_REPRESENTATION(#1035,#1037);
#1035 = ( REPRESENTATION_RELATIONSHIP('','',#932,#10) 
REPRESENTATION_RELATIONSHIP_WITH_TRANSFORMATION(#1036) 
SHAPE_REPRESENTATION_RELATIONSHIP() );
#1036 = ITEM_DEFINED_TRANSFORMATION('','',#11,#23);
#1037 = PRODUCT_DEFINITION_SHAPE('Placement','Placement of an item',
  #1038);
#1038 = NEXT_ASSEMBLY_USAGE_OCCURRENCE('1959','Array','',#5,#927,$);
#1039 = PRODUCT_RELATED_PRODUCT_CATEGORY('part',$,(#929));
#1040 = SHAPE_DEFINITION_REPRESENTATION(#1041,#1047);
#1041 = PRODUCT_DEFINITION_SHAPE('','',#1042);
#1042 = PRODUCT_DEFINITION('design','',#1043,#1046);
#1043 = PRODUCT_DEFINITION_FORMATION('','',#1044);
#1044 = PRODUCT('Body001 (Mirror #1)','Body001 (Mirror #1)','',(#1045));
#1045 = PRODUCT_CONTEXT('',#2,'mechanical');
#1046 = PRODUCT_DEFINITION_CONTEXT('part definition',#2,'design');
#1047 = ADVANCED_BREP_SHAPE_REPRESENTATION('',(#11,#1048),#1330);
#1048 = MANIFOLD_SOLID_BREP('',#1049);
#1049 = CLOSED_SHELL('',(#1050,#1090,#1121,#1152,#1183,#1214,#1245,#1276
    ,#1298,#1314));
#1050 = ADVANCED_FACE('',(#1051),#1085,.F.);
#1051 = FACE_BOUND('',#1052,.T.);
#1052 = EDGE_LOOP('',(#1053,#1063,#1071,#1079));
#1053 = ORIENTED_EDGE('',*,*,#1054,.T.);
#1054 = EDGE_CURVE('',#1055,#1057,#1059,.T.);
#1055 = VERTEX_POINT('',#1056);
#1056 = CARTESIAN_POINT('',(-3.05,0.528449513664,5.64));
#1057 = VERTEX_POINT('',#1058);
#1058 = CARTESIAN_POINT('',(-3.05,0.528449513664,5.86));
#1059 = LINE('',#1060,#1061);
#1060 = CARTESIAN_POINT('',(-3.05,0.528449513664,5.64));
#1061 = VECTOR('',#1062,1.);
#1062 = DIRECTION('',(-0.,-0.,1.));
#1063 = ORIENTED_EDGE('',*,*,#1064,.T.);
#1064 = EDGE_CURVE('',#1057,#1065,#1067,.T.);
#1065 = VERTEX_POINT('',#1066);
#1066 = CARTESIAN_POINT('',(-3.15,0.528449513664,5.86));
#1067 = LINE('',#1068,#1069);
#1068 = CARTESIAN_POINT('',(-3.05,0.528449513664,5.86));
#1069 = VECTOR('',#1070,1.);
#1070 = DIRECTION('',(-1.,-0.,-0.));
#1071 = ORIENTED_EDGE('',*,*,#1072,.F.);
#1072 = EDGE_CURVE('',#1073,#1065,#1075,.T.);
#1073 = VERTEX_POINT('',#1074);
#1074 = CARTESIAN_POINT('',(-3.15,0.528449513664,5.64));
#1075 = LINE('',#1076,#1077);
#1076 = CARTESIAN_POINT('',(-3.15,0.528449513664,5.64));
#1077 = VECTOR('',#1078,1.);
#1078 = DIRECTION('',(-0.,-0.,1.));
#1079 = ORIENTED_EDGE('',*,*,#1080,.F.);
#1080 = EDGE_CURVE('',#1055,#1073,#1081,.T.);
#1081 = LINE('',#1082,#1083);
#1082 = CARTESIAN_POINT('',(-3.05,0.528449513664,5.64));
#1083 = VECTOR('',#1084,1.);
#1084 = DIRECTION('',(-1.,-0.,-0.));
#1085 = PLANE('',#1086);
#1086 = AXIS2_PLACEMENT_3D('',#1087,#1088,#1089);
#1087 = CARTESIAN_POINT('',(-3.05,0.528449513664,5.64));
#1088 = DIRECTION('',(-0.,1.,-0.));
#1089 = DIRECTION('',(1.,0.,0.));
#1090 = ADVANCED_FACE('',(#1091),#1116,.F.);
#1091 = FACE_BOUND('',#1092,.T.);
#1092 = EDGE_LOOP('',(#1093,#1094,#1102,#1110));
#1093 = ORIENTED_EDGE('',*,*,#1072,.T.);
#1094 = ORIENTED_EDGE('',*,*,#1095,.T.);
#1095 = EDGE_CURVE('',#1065,#1096,#1098,.T.);
#1096 = VERTEX_POINT('',#1097);
#1097 = CARTESIAN_POINT('',(-3.45,0.,5.86));
#1098 = LINE('',#1099,#1100);
#1099 = CARTESIAN_POINT('',(-3.15,0.528449513664,5.86));
#1100 = VECTOR('',#1101,1.);
#1101 = DIRECTION('',(-0.493691642939,-0.869637028703,-0.));
#1102 = ORIENTED_EDGE('',*,*,#1103,.F.);
#1103 = EDGE_CURVE('',#1104,#1096,#1106,.T.);
#1104 = VERTEX_POINT('',#1105);
#1105 = CARTESIAN_POINT('',(-3.45,0.,5.64));
#1106 = LINE('',#1107,#1108);
#1107 = CARTESIAN_POINT('',(-3.45,0.,5.64));
#1108 = VECTOR('',#1109,1.);
#1109 = DIRECTION('',(-0.,-0.,1.));
#1110 = ORIENTED_EDGE('',*,*,#1111,.F.);
#1111 = EDGE_CURVE('',#1073,#1104,#1112,.T.);
#1112 = LINE('',#1113,#1114);
#1113 = CARTESIAN_POINT('',(-3.15,0.528449513664,5.64));
#1114 = VECTOR('',#1115,1.);
#1115 = DIRECTION('',(-0.493691642939,-0.869637028703,-0.));
#1116 = PLANE('',#1117);
#1117 = AXIS2_PLACEMENT_3D('',#1118,#1119,#1120);
#1118 = CARTESIAN_POINT('',(-3.15,0.528449513664,5.64));
#1119 = DIRECTION('',(-0.869637028703,0.493691642939,-0.));
#1120 = DIRECTION('',(0.493691642939,0.869637028703,0.));
#1121 = ADVANCED_FACE('',(#1122),#1147,.F.);
#1122 = FACE_BOUND('',#1123,.T.);
#1123 = EDGE_LOOP('',(#1124,#1125,#1133,#1141));
#1124 = ORIENTED_EDGE('',*,*,#1103,.T.);
#1125 = ORIENTED_EDGE('',*,*,#1126,.T.);
#1126 = EDGE_CURVE('',#1096,#1127,#1129,.T.);
#1127 = VERTEX_POINT('',#1128);
#1128 = CARTESIAN_POINT('',(-4.05,0.,5.86));
#1129 = LINE('',#1130,#1131);
#1130 = CARTESIAN_POINT('',(-3.45,0.,5.86));
#1131 = VECTOR('',#1132,1.);
#1132 = DIRECTION('',(-1.,-0.,-0.));
#1133 = ORIENTED_EDGE('',*,*,#1134,.F.);
#1134 = EDGE_CURVE('',#1135,#1127,#1137,.T.);
#1135 = VERTEX_POINT('',#1136);
#1136 = CARTESIAN_POINT('',(-4.05,0.,5.64));
#1137 = LINE('',#1138,#1139);
#1138 = CARTESIAN_POINT('',(-4.05,0.,5.64));
#1139 = VECTOR('',#1140,1.);
#1140 = DIRECTION('',(-0.,-0.,1.));
#1141 = ORIENTED_EDGE('',*,*,#1142,.F.);
#1142 = EDGE_CURVE('',#1104,#1135,#1143,.T.);
#1143 = LINE('',#1144,#1145);
#1144 = CARTESIAN_POINT('',(-3.45,0.,5.64));
#1145 = VECTOR('',#1146,1.);
#1146 = DIRECTION('',(-1.,-0.,-0.));
#1147 = PLANE('',#1148);
#1148 = AXIS2_PLACEMENT_3D('',#1149,#1150,#1151);
#1149 = CARTESIAN_POINT('',(-3.45,0.,5.64));
#1150 = DIRECTION('',(-0.,1.,-0.));
#1151 = DIRECTION('',(1.,0.,0.));
#1152 = ADVANCED_FACE('',(#1153),#1178,.F.);
#1153 = FACE_BOUND('',#1154,.T.);
#1154 = EDGE_LOOP('',(#1155,#1156,#1164,#1172));
#1155 = ORIENTED_EDGE('',*,*,#1134,.T.);
#1156 = ORIENTED_EDGE('',*,*,#1157,.T.);
#1157 = EDGE_CURVE('',#1127,#1158,#1160,.T.);
#1158 = VERTEX_POINT('',#1159);
#1159 = CARTESIAN_POINT('',(-4.05,0.145,5.86));
#1160 = LINE('',#1161,#1162);
#1161 = CARTESIAN_POINT('',(-4.05,0.,5.86));
#1162 = VECTOR('',#1163,1.);
#1163 = DIRECTION('',(0.,1.,0.));
#1164 = ORIENTED_EDGE('',*,*,#1165,.F.);
#1165 = EDGE_CURVE('',#1166,#1158,#1168,.T.);
#1166 = VERTEX_POINT('',#1167);
#1167 = CARTESIAN_POINT('',(-4.05,0.145,5.64));
#1168 = LINE('',#1169,#1170);
#1169 = CARTESIAN_POINT('',(-4.05,0.145,5.64));
#1170 = VECTOR('',#1171,1.);
#1171 = DIRECTION('',(-0.,-0.,1.));
#1172 = ORIENTED_EDGE('',*,*,#1173,.F.);
#1173 = EDGE_CURVE('',#1135,#1166,#1174,.T.);
#1174 = LINE('',#1175,#1176);
#1175 = CARTESIAN_POINT('',(-4.05,0.,5.64));
#1176 = VECTOR('',#1177,1.);
#1177 = DIRECTION('',(0.,1.,0.));
#1178 = PLANE('',#1179);
#1179 = AXIS2_PLACEMENT_3D('',#1180,#1181,#1182);
#1180 = CARTESIAN_POINT('',(-4.05,0.,5.64));
#1181 = DIRECTION('',(1.,-0.,-0.));
#1182 = DIRECTION('',(0.,-1.,0.));
#1183 = ADVANCED_FACE('',(#1184),#1209,.F.);
#1184 = FACE_BOUND('',#1185,.T.);
#1185 = EDGE_LOOP('',(#1186,#1187,#1195,#1203));
#1186 = ORIENTED_EDGE('',*,*,#1165,.T.);
#1187 = ORIENTED_EDGE('',*,*,#1188,.T.);
#1188 = EDGE_CURVE('',#1158,#1189,#1191,.T.);
#1189 = VERTEX_POINT('',#1190);
#1190 = CARTESIAN_POINT('',(-3.534419946887,0.145,5.86));
#1191 = LINE('',#1192,#1193);
#1192 = CARTESIAN_POINT('',(-4.05,0.145,5.86));
#1193 = VECTOR('',#1194,1.);
#1194 = DIRECTION('',(1.,0.,0.));
#1195 = ORIENTED_EDGE('',*,*,#1196,.F.);
#1196 = EDGE_CURVE('',#1197,#1189,#1199,.T.);
#1197 = VERTEX_POINT('',#1198);
#1198 = CARTESIAN_POINT('',(-3.534419946887,0.145,5.64));
#1199 = LINE('',#1200,#1201);
#1200 = CARTESIAN_POINT('',(-3.534419946887,0.145,5.64));
#1201 = VECTOR('',#1202,1.);
#1202 = DIRECTION('',(-0.,-0.,1.));
#1203 = ORIENTED_EDGE('',*,*,#1204,.F.);
#1204 = EDGE_CURVE('',#1166,#1197,#1205,.T.);
#1205 = LINE('',#1206,#1207);
#1206 = CARTESIAN_POINT('',(-4.05,0.145,5.64));
#1207 = VECTOR('',#1208,1.);
#1208 = DIRECTION('',(1.,0.,0.));
#1209 = PLANE('',#1210);
#1210 = AXIS2_PLACEMENT_3D('',#1211,#1212,#1213);
#1211 = CARTESIAN_POINT('',(-4.05,0.145,5.64));
#1212 = DIRECTION('',(-0.,-1.,-0.));
#1213 = DIRECTION('',(-1.,0.,0.));
#1214 = ADVANCED_FACE('',(#1215),#1240,.F.);
#1215 = FACE_BOUND('',#1216,.T.);
#1216 = EDGE_LOOP('',(#1217,#1218,#1226,#1234));
#1217 = ORIENTED_EDGE('',*,*,#1196,.T.);
#1218 = ORIENTED_EDGE('',*,*,#1219,.T.);
#1219 = EDGE_CURVE('',#1189,#1220,#1222,.T.);
#1220 = VERTEX_POINT('',#1221);
#1221 = CARTESIAN_POINT('',(-3.234419946887,0.673449513664,5.86));
#1222 = LINE('',#1223,#1224);
#1223 = CARTESIAN_POINT('',(-3.534419946887,0.145,5.86));
#1224 = VECTOR('',#1225,1.);
#1225 = DIRECTION('',(0.493691642939,0.869637028703,0.));
#1226 = ORIENTED_EDGE('',*,*,#1227,.F.);
#1227 = EDGE_CURVE('',#1228,#1220,#1230,.T.);
#1228 = VERTEX_POINT('',#1229);
#1229 = CARTESIAN_POINT('',(-3.234419946887,0.673449513664,5.64));
#1230 = LINE('',#1231,#1232);
#1231 = CARTESIAN_POINT('',(-3.234419946887,0.673449513664,5.64));
#1232 = VECTOR('',#1233,1.);
#1233 = DIRECTION('',(-0.,-0.,1.));
#1234 = ORIENTED_EDGE('',*,*,#1235,.F.);
#1235 = EDGE_CURVE('',#1197,#1228,#1236,.T.);
#1236 = LINE('',#1237,#1238);
#1237 = CARTESIAN_POINT('',(-3.534419946887,0.145,5.64));
#1238 = VECTOR('',#1239,1.);
#1239 = DIRECTION('',(0.493691642939,0.869637028703,0.));
#1240 = PLANE('',#1241);
#1241 = AXIS2_PLACEMENT_3D('',#1242,#1243,#1244);
#1242 = CARTESIAN_POINT('',(-3.534419946887,0.145,5.64));
#1243 = DIRECTION('',(0.869637028703,-0.493691642939,0.));
#1244 = DIRECTION('',(-0.493691642939,-0.869637028703,0.));
#1245 = ADVANCED_FACE('',(#1246),#1271,.F.);
#1246 = FACE_BOUND('',#1247,.T.);
#1247 = EDGE_LOOP('',(#1248,#1249,#1257,#1265));
#1248 = ORIENTED_EDGE('',*,*,#1227,.T.);
#1249 = ORIENTED_EDGE('',*,*,#1250,.T.);
#1250 = EDGE_CURVE('',#1220,#1251,#1253,.T.);
#1251 = VERTEX_POINT('',#1252);
#1252 = CARTESIAN_POINT('',(-3.05,0.673449513664,5.86));
#1253 = LINE('',#1254,#1255);
#1254 = CARTESIAN_POINT('',(-3.234419946887,0.673449513664,5.86));
#1255 = VECTOR('',#1256,1.);
#1256 = DIRECTION('',(1.,0.,0.));
#1257 = ORIENTED_EDGE('',*,*,#1258,.F.);
#1258 = EDGE_CURVE('',#1259,#1251,#1261,.T.);
#1259 = VERTEX_POINT('',#1260);
#1260 = CARTESIAN_POINT('',(-3.05,0.673449513664,5.64));
#1261 = LINE('',#1262,#1263);
#1262 = CARTESIAN_POINT('',(-3.05,0.673449513664,5.64));
#1263 = VECTOR('',#1264,1.);
#1264 = DIRECTION('',(-0.,-0.,1.));
#1265 = ORIENTED_EDGE('',*,*,#1266,.F.);
#1266 = EDGE_CURVE('',#1228,#1259,#1267,.T.);
#1267 = LINE('',#1268,#1269);
#1268 = CARTESIAN_POINT('',(-3.234419946887,0.673449513664,5.64));
#1269 = VECTOR('',#1270,1.);
#1270 = DIRECTION('',(1.,0.,0.));
#1271 = PLANE('',#1272);
#1272 = AXIS2_PLACEMENT_3D('',#1273,#1274,#1275);
#1273 = CARTESIAN_POINT('',(-3.234419946887,0.673449513664,5.64));
#1274 = DIRECTION('',(-0.,-1.,-0.));
#1275 = DIRECTION('',(-1.,0.,0.));
#1276 = ADVANCED_FACE('',(#1277),#1293,.F.);
#1277 = FACE_BOUND('',#1278,.T.);
#1278 = EDGE_LOOP('',(#1279,#1280,#1286,#1287));
#1279 = ORIENTED_EDGE('',*,*,#1258,.T.);
#1280 = ORIENTED_EDGE('',*,*,#1281,.T.);
#1281 = EDGE_CURVE('',#1251,#1057,#1282,.T.);
#1282 = LINE('',#1283,#1284);
#1283 = CARTESIAN_POINT('',(-3.05,0.673449513664,5.86));
#1284 = VECTOR('',#1285,1.);
#1285 = DIRECTION('',(-0.,-1.,-0.));
#1286 = ORIENTED_EDGE('',*,*,#1054,.F.);
#1287 = ORIENTED_EDGE('',*,*,#1288,.F.);
#1288 = EDGE_CURVE('',#1259,#1055,#1289,.T.);
#1289 = LINE('',#1290,#1291);
#1290 = CARTESIAN_POINT('',(-3.05,0.673449513664,5.64));
#1291 = VECTOR('',#1292,1.);
#1292 = DIRECTION('',(-0.,-1.,-0.));
#1293 = PLANE('',#1294);
#1294 = AXIS2_PLACEMENT_3D('',#1295,#1296,#1297);
#1295 = CARTESIAN_POINT('',(-3.05,0.673449513664,5.64));
#1296 = DIRECTION('',(-1.,-0.,-0.));
#1297 = DIRECTION('',(0.,1.,0.));
#1298 = ADVANCED_FACE('',(#1299),#1309,.F.);
#1299 = FACE_BOUND('',#1300,.T.);
#1300 = EDGE_LOOP('',(#1301,#1302,#1303,#1304,#1305,#1306,#1307,#1308));
#1301 = ORIENTED_EDGE('',*,*,#1080,.T.);
#1302 = ORIENTED_EDGE('',*,*,#1111,.T.);
#1303 = ORIENTED_EDGE('',*,*,#1142,.T.);
#1304 = ORIENTED_EDGE('',*,*,#1173,.T.);
#1305 = ORIENTED_EDGE('',*,*,#1204,.T.);
#1306 = ORIENTED_EDGE('',*,*,#1235,.T.);
#1307 = ORIENTED_EDGE('',*,*,#1266,.T.);
#1308 = ORIENTED_EDGE('',*,*,#1288,.T.);
#1309 = PLANE('',#1310);
#1310 = AXIS2_PLACEMENT_3D('',#1311,#1312,#1313);
#1311 = CARTESIAN_POINT('',(-3.5059912255,0.261135129761,5.64));
#1312 = DIRECTION('',(0.,0.,1.));
#1313 = DIRECTION('',(1.,0.,0.));
#1314 = ADVANCED_FACE('',(#1315),#1325,.T.);
#1315 = FACE_BOUND('',#1316,.F.);
#1316 = EDGE_LOOP('',(#1317,#1318,#1319,#1320,#1321,#1322,#1323,#1324));
#1317 = ORIENTED_EDGE('',*,*,#1064,.T.);
#1318 = ORIENTED_EDGE('',*,*,#1095,.T.);
#1319 = ORIENTED_EDGE('',*,*,#1126,.T.);
#1320 = ORIENTED_EDGE('',*,*,#1157,.T.);
#1321 = ORIENTED_EDGE('',*,*,#1188,.T.);
#1322 = ORIENTED_EDGE('',*,*,#1219,.T.);
#1323 = ORIENTED_EDGE('',*,*,#1250,.T.);
#1324 = ORIENTED_EDGE('',*,*,#1281,.T.);
#1325 = PLANE('',#1326);
#1326 = AXIS2_PLACEMENT_3D('',#1327,#1328,#1329);
#1327 = CARTESIAN_POINT('',(-3.5059912255,0.261135129761,5.86));
#1328 = DIRECTION('',(0.,0.,1.));
#1329 = DIRECTION('',(1.,0.,0.));
#1330 = ( GEOMETRIC_REPRESENTATION_CONTEXT(3) 
GLOBAL_UNCERTAINTY_ASSIGNED_CONTEXT((#1334)) 
GLOBAL_UNIT_ASSIGNED_CONTEXT((#1331,#1332,#1333)) REPRESENTATION_CONTEXT
('Context #1','3D Context with UNIT and UNCERTAINTY') );
#1331 = ( LENGTH_UNIT() NAMED_UNIT(*) SI_UNIT(.MILLI.,.METRE.) );
#1332 = ( NAMED_UNIT(*) PLANE_ANGLE_UNIT() SI_UNIT($,.RADIAN.) );
#1333 = ( NAMED_UNIT(*) SI_UNIT($,.STERADIAN.) SOLID_ANGLE_UNIT() );
#1334 = UNCERTAINTY_MEASURE_WITH_UNIT(LENGTH_MEASURE(1.E-07),#1331,
  'distance_accuracy_value','confusion accuracy');
#1335 = CONTEXT_DEPENDENT_SHAPE_REPRESENTATION(#1336,#1338);
#1336 = ( REPRESENTATION_RELATIONSHIP('','',#1047,#932) 
REPRESENTATION_RELATIONSHIP_WITH_TRANSFORMATION(#1337) 
SHAPE_REPRESENTATION_RELATIONSHIP() );
#1337 = ITEM_DEFINED_TRANSFORMATION('','',#11,#933);
#1338 = PRODUCT_DEFINITION_SHAPE('Placement','Placement of an item',
  #1339);
#1339 = NEXT_ASSEMBLY_USAGE_OCCURRENCE('1935','0','',#927,#1042,$);
#1340 = PRODUCT_RELATED_PRODUCT_CATEGORY('part',$,(#1044));
#1341 = CONTEXT_DEPENDENT_SHAPE_REPRESENTATION(#1342,#1344);
#1342 = ( REPRESENTATION_RELATIONSHIP('','',#1047,#932) 
REPRESENTATION_RELATIONSHIP_WITH_TRANSFORMATION(#1343) 
SHAPE_REPRESENTATION_RELATIONSHIP() );
#1343 = ITEM_DEFINED_TRANSFORMATION('','',#11,#937);
#1344 = PRODUCT_DEFINITION_SHAPE('Placement','Placement of an item',
  #1345);
#1345 = NEXT_ASSEMBLY_USAGE_OCCURRENCE('1936','1','',#927,#1042,$);
#1346 = CONTEXT_DEPENDENT_SHAPE_REPRESENTATION(#1347,#1349);
#1347 = ( REPRESENTATION_RELATIONSHIP('','',#1047,#932) 
REPRESENTATION_RELATIONSHIP_WITH_TRANSFORMATION(#1348) 
SHAPE_REPRESENTATION_RELATIONSHIP() );
#1348 = ITEM_DEFINED_TRANSFORMATION('','',#11,#941);
#1349 = PRODUCT_DEFINITION_SHAPE('Placement','Placement of an item',
  #1350);
#1350 = NEXT_ASSEMBLY_USAGE_OCCURRENCE('1937','2','',#927,#1042,$);
#1351 = CONTEXT_DEPENDENT_SHAPE_REPRESENTATION(#1352,#1354);
#1352 = ( REPRESENTATION_RELATIONSHIP('','',#1047,#932) 
REPRESENTATION_RELATIONSHIP_WITH_TRANSFORMATION(#1353) 
SHAPE_REPRESENTATION_RELATIONSHIP() );
#1353 = ITEM_DEFINED_TRANSFORMATION('','',#11,#945);
#1354 = PRODUCT_DEFINITION_SHAPE('Placement','Placement of an item',
  #1355);
#1355 = NEXT_ASSEMBLY_USAGE_OCCURRENCE('1938','3','',#927,#1042,$);
#1356 = CONTEXT_DEPENDENT_SHAPE_REPRESENTATION(#1357,#1359);
#1357 = ( REPRESENTATION_RELATIONSHIP('','',#1047,#932) 
REPRESENTATION_RELATIONSHIP_WITH_TRANSFORMATION(#1358) 
SHAPE_REPRESENTATION_RELATIONSHIP() );
#1358 = ITEM_DEFINED_TRANSFORMATION('','',#11,#949);
#1359 = PRODUCT_DEFINITION_SHAPE('Placement','Placement of an item',
  #1360);
#1360 = NEXT_ASSEMBLY_USAGE_OCCURRENCE('1939','4','',#927,#1042,$);
#1361 = CONTEXT_DEPENDENT_SHAPE_REPRESENTATION(#1362,#1364);
#1362 = ( REPRESENTATION_RELATIONSHIP('','',#1047,#932) 
REPRESENTATION_RELATIONSHIP_WITH_TRANSFORMATION(#1363) 
SHAPE_REPRESENTATION_RELATIONSHIP() );
#1363 = ITEM_DEFINED_TRANSFORMATION('','',#11,#953);
#1364 = PRODUCT_DEFINITION_SHAPE('Placement','Placement of an item',
  #1365);
#1365 = NEXT_ASSEMBLY_USAGE_OCCURRENCE('1940','5','',#927,#1042,$);
#1366 = CONTEXT_DEPENDENT_SHAPE_REPRESENTATION(#1367,#1369);
#1367 = ( REPRESENTATION_RELATIONSHIP('','',#1047,#932) 
REPRESENTATION_RELATIONSHIP_WITH_TRANSFORMATION(#1368) 
SHAPE_REPRESENTATION_RELATIONSHIP() );
#1368 = ITEM_DEFINED_TRANSFORMATION('','',#11,#957);
#1369 = PRODUCT_DEFINITION_SHAPE('Placement','Placement of an item',
  #1370);
#1370 = NEXT_ASSEMBLY_USAGE_OCCURRENCE('1941','6','',#927,#1042,$);
#1371 = CONTEXT_DEPENDENT_SHAPE_REPRESENTATION(#1372,#1374);
#1372 = ( REPRESENTATION_RELATIONSHIP('','',#1047,#932) 
REPRESENTATION_RELATIONSHIP_WITH_TRANSFORMATION(#1373) 
SHAPE_REPRESENTATION_RELATIONSHIP() );
#1373 = ITEM_DEFINED_TRANSFORMATION('','',#11,#961);
#1374 = PRODUCT_DEFINITION_SHAPE('Placement','Placement of an item',
  #1375);
#1375 = NEXT_ASSEMBLY_USAGE_OCCURRENCE('1942','7','',#927,#1042,$);
#1376 = CONTEXT_DEPENDENT_SHAPE_REPRESENTATION(#1377,#1379);
#1377 = ( REPRESENTATION_RELATIONSHIP('','',#1047,#932) 
REPRESENTATION_RELATIONSHIP_WITH_TRANSFORMATION(#1378) 
SHAPE_REPRESENTATION_RELATIONSHIP() );
#1378 = ITEM_DEFINED_TRANSFORMATION('','',#11,#965);
#1379 = PRODUCT_DEFINITION_SHAPE('Placement','Placement of an item',
  #1380);
#1380 = NEXT_ASSEMBLY_USAGE_OCCURRENCE('1943','8','',#927,#1042,$);
#1381 = CONTEXT_DEPENDENT_SHAPE_REPRESENTATION(#1382,#1384);
#1382 = ( REPRESENTATION_RELATIONSHIP('','',#1047,#932) 
REPRESENTATION_RELATIONSHIP_WITH_TRANSFORMATION(#1383) 
SHAPE_REPRESENTATION_RELATIONSHIP() );
#1383 = ITEM_DEFINED_TRANSFORMATION('','',#11,#969);
#1384 = PRODUCT_DEFINITION_SHAPE('Placement','Placement of an item',
  #1385);
#1385 = NEXT_ASSEMBLY_USAGE_OCCURRENCE('1944','9','',#927,#1042,$);
#1386 = CONTEXT_DEPENDENT_SHAPE_REPRESENTATION(#1387,#1389);
#1387 = ( REPRESENTATION_RELATIONSHIP('','',#1047,#932) 
REPRESENTATION_RELATIONSHIP_WITH_TRANSFORMATION(#1388) 
SHAPE_REPRESENTATION_RELATIONSHIP() );
#1388 = ITEM_DEFINED_TRANSFORMATION('','',#11,#973);
#1389 = PRODUCT_DEFINITION_SHAPE('Placement','Placement of an item',
  #1390);
#1390 = NEXT_ASSEMBLY_USAGE_OCCURRENCE('1945','10','',#927,#1042,$);
#1391 = CONTEXT_DEPENDENT_SHAPE_REPRESENTATION(#1392,#1394);
#1392 = ( REPRESENTATION_RELATIONSHIP('','',#1047,#932) 
REPRESENTATION_RELATIONSHIP_WITH_TRANSFORMATION(#1393) 
SHAPE_REPRESENTATION_RELATIONSHIP() );
#1393 = ITEM_DEFINED_TRANSFORMATION('','',#11,#977);
#1394 = PRODUCT_DEFINITION_SHAPE('Placement','Placement of an item',
  #1395);
#1395 = NEXT_ASSEMBLY_USAGE_OCCURRENCE('1946','11','',#927,#1042,$);
#1396 = CONTEXT_DEPENDENT_SHAPE_REPRESENTATION(#1397,#1399);
#1397 = ( REPRESENTATION_RELATIONSHIP('','',#1047,#932) 
REPRESENTATION_RELATIONSHIP_WITH_TRANSFORMATION(#1398) 
SHAPE_REPRESENTATION_RELATIONSHIP() );
#1398 = ITEM_DEFINED_TRANSFORMATION('','',#11,#981);
#1399 = PRODUCT_DEFINITION_SHAPE('Placement','Placement of an item',
  #1400);
#1400 = NEXT_ASSEMBLY_USAGE_OCCURRENCE('1947','12','',#927,#1042,$);
#1401 = CONTEXT_DEPENDENT_SHAPE_REPRESENTATION(#1402,#1404);
#1402 = ( REPRESENTATION_RELATIONSHIP('','',#1047,#932) 
REPRESENTATION_RELATIONSHIP_WITH_TRANSFORMATION(#1403) 
SHAPE_REPRESENTATION_RELATIONSHIP() );
#1403 = ITEM_DEFINED_TRANSFORMATION('','',#11,#985);
#1404 = PRODUCT_DEFINITION_SHAPE('Placement','Placement of an item',
  #1405);
#1405 = NEXT_ASSEMBLY_USAGE_OCCURRENCE('1948','13','',#927,#1042,$);
#1406 = CONTEXT_DEPENDENT_SHAPE_REPRESENTATION(#1407,#1409);
#1407 = ( REPRESENTATION_RELATIONSHIP('','',#1047,#932) 
REPRESENTATION_RELATIONSHIP_WITH_TRANSFORMATION(#1408) 
SHAPE_REPRESENTATION_RELATIONSHIP() );
#1408 = ITEM_DEFINED_TRANSFORMATION('','',#11,#989);
#1409 = PRODUCT_DEFINITION_SHAPE('Placement','Placement of an item',
  #1410);
#1410 = NEXT_ASSEMBLY_USAGE_OCCURRENCE('1949','14','',#927,#1042,$);
#1411 = CONTEXT_DEPENDENT_SHAPE_REPRESENTATION(#1412,#1414);
#1412 = ( REPRESENTATION_RELATIONSHIP('','',#1047,#932) 
REPRESENTATION_RELATIONSHIP_WITH_TRANSFORMATION(#1413) 
SHAPE_REPRESENTATION_RELATIONSHIP() );
#1413 = ITEM_DEFINED_TRANSFORMATION('','',#11,#993);
#1414 = PRODUCT_DEFINITION_SHAPE('Placement','Placement of an item',
  #1415);
#1415 = NEXT_ASSEMBLY_USAGE_OCCURRENCE('1950','15','',#927,#1042,$);
#1416 = CONTEXT_DEPENDENT_SHAPE_REPRESENTATION(#1417,#1419);
#1417 = ( REPRESENTATION_RELATIONSHIP('','',#1047,#932) 
REPRESENTATION_RELATIONSHIP_WITH_TRANSFORMATION(#1418) 
SHAPE_REPRESENTATION_RELATIONSHIP() );
#1418 = ITEM_DEFINED_TRANSFORMATION('','',#11,#997);
#1419 = PRODUCT_DEFINITION_SHAPE('Placement','Placement of an item',
  #1420);
#1420 = NEXT_ASSEMBLY_USAGE_OCCURRENCE('1951','16','',#927,#1042,$);
#1421 = CONTEXT_DEPENDENT_SHAPE_REPRESENTATION(#1422,#1424);
#1422 = ( REPRESENTATION_RELATIONSHIP('','',#1047,#932) 
REPRESENTATION_RELATIONSHIP_WITH_TRANSFORMATION(#1423) 
SHAPE_REPRESENTATION_RELATIONSHIP() );
#1423 = ITEM_DEFINED_TRANSFORMATION('','',#11,#1001);
#1424 = PRODUCT_DEFINITION_SHAPE('Placement','Placement of an item',
  #1425);
#1425 = NEXT_ASSEMBLY_USAGE_OCCURRENCE('1952','17','',#927,#1042,$);
#1426 = CONTEXT_DEPENDENT_SHAPE_REPRESENTATION(#1427,#1429);
#1427 = ( REPRESENTATION_RELATIONSHIP('','',#1047,#932) 
REPRESENTATION_RELATIONSHIP_WITH_TRANSFORMATION(#1428) 
SHAPE_REPRESENTATION_RELATIONSHIP() );
#1428 = ITEM_DEFINED_TRANSFORMATION('','',#11,#1005);
#1429 = PRODUCT_DEFINITION_SHAPE('Placement','Placement of an item',
  #1430);
#1430 = NEXT_ASSEMBLY_USAGE_OCCURRENCE('1953','18','',#927,#1042,$);
#1431 = CONTEXT_DEPENDENT_SHAPE_REPRESENTATION(#1432,#1434);
#1432 = ( REPRESENTATION_RELATIONSHIP('','',#1047,#932) 
REPRESENTATION_RELATIONSHIP_WITH_TRANSFORMATION(#1433) 
SHAPE_REPRESENTATION_RELATIONSHIP() );
#1433 = ITEM_DEFINED_TRANSFORMATION('','',#11,#1009);
#1434 = PRODUCT_DEFINITION_SHAPE('Placement','Placement of an item',
  #1435);
#1435 = NEXT_ASSEMBLY_USAGE_OCCURRENCE('1954','19','',#927,#1042,$);
#1436 = CONTEXT_DEPENDENT_SHAPE_REPRESENTATION(#1437,#1439);
#1437 = ( REPRESENTATION_RELATIONSHIP('','',#1047,#932) 
REPRESENTATION_RELATIONSHIP_WITH_TRANSFORMATION(#1438) 
SHAPE_REPRESENTATION_RELATIONSHIP() );
#1438 = ITEM_DEFINED_TRANSFORMATION('','',#11,#1013);
#1439 = PRODUCT_DEFINITION_SHAPE('Placement','Placement of an item',
  #1440);
#1440 = NEXT_ASSEMBLY_USAGE_OCCURRENCE('1955','20','',#927,#1042,$);
#1441 = CONTEXT_DEPENDENT_SHAPE_REPRESENTATION(#1442,#1444);
#1442 = ( REPRESENTATION_RELATIONSHIP('','',#1047,#932) 
REPRESENTATION_RELATIONSHIP_WITH_TRANSFORMATION(#1443) 
SHAPE_REPRESENTATION_RELATIONSHIP() );
#1443 = ITEM_DEFINED_TRANSFORMATION('','',#11,#1017);
#1444 = PRODUCT_DEFINITION_SHAPE('Placement','Placement of an item',
  #1445);
#1445 = NEXT_ASSEMBLY_USAGE_OCCURRENCE('1956','21','',#927,#1042,$);
#1446 = CONTEXT_DEPENDENT_SHAPE_REPRESENTATION(#1447,#1449);
#1447 = ( REPRESENTATION_RELATIONSHIP('','',#1047,#932) 
REPRESENTATION_RELATIONSHIP_WITH_TRANSFORMATION(#1448) 
SHAPE_REPRESENTATION_RELATIONSHIP() );
#1448 = ITEM_DEFINED_TRANSFORMATION('','',#11,#1021);
#1449 = PRODUCT_DEFINITION_SHAPE('Placement','Placement of an item',
  #1450);
#1450 = NEXT_ASSEMBLY_USAGE_OCCURRENCE('1957','22','',#927,#1042,$);
#1451 = CONTEXT_DEPENDENT_SHAPE_REPRESENTATION(#1452,#1454);
#1452 = ( REPRESENTATION_RELATIONSHIP('','',#1047,#932) 
REPRESENTATION_RELATIONSHIP_WITH_TRANSFORMATION(#1453) 
SHAPE_REPRESENTATION_RELATIONSHIP() );
#1453 = ITEM_DEFINED_TRANSFORMATION('','',#11,#1025);
#1454 = PRODUCT_DEFINITION_SHAPE('Placement','Placement of an item',
  #1455);
#1455 = NEXT_ASSEMBLY_USAGE_OCCURRENCE('1958','23','',#927,#1042,$);
#1456 = MECHANICAL_DESIGN_GEOMETRIC_PRESENTATION_REPRESENTATION('',(
    #1457),#1330);
#1457 = STYLED_ITEM('color',(#1458),#1048);
#1458 = PRESENTATION_STYLE_ASSIGNMENT((#1459,#1465));
#1459 = SURFACE_STYLE_USAGE(.BOTH.,#1460);
#1460 = SURFACE_SIDE_STYLE('',(#1461));
#1461 = SURFACE_STYLE_FILL_AREA(#1462);
#1462 = FILL_AREA_STYLE('',(#1463));
#1463 = FILL_AREA_STYLE_COLOUR('',#1464);
#1464 = COLOUR_RGB('',0.800000010877,0.800000010877,0.800000010877);
#1465 = CURVE_STYLE('',#1466,POSITIVE_LENGTH_MEASURE(0.1),#1467);
#1466 = DRAUGHTING_PRE_DEFINED_CURVE_FONT('continuous');
#1467 = COLOUR_RGB('',9.803921802644E-02,9.803921802644E-02,
  9.803921802644E-02);
#1468 = MECHANICAL_DESIGN_GEOMETRIC_PRESENTATION_REPRESENTATION('',(
    #1469),#383);
#1469 = STYLED_ITEM('color',(#1470),#41);
#1470 = PRESENTATION_STYLE_ASSIGNMENT((#1471,#1477));
#1471 = SURFACE_STYLE_USAGE(.BOTH.,#1472);
#1472 = SURFACE_SIDE_STYLE('',(#1473));
#1473 = SURFACE_STYLE_FILL_AREA(#1474);
#1474 = FILL_AREA_STYLE('',(#1475));
#1475 = FILL_AREA_STYLE_COLOUR('',#1476);
#1476 = COLOUR_RGB('',0.196078429142,0.196078429142,0.196078429142);
#1477 = CURVE_STYLE('',#1478,POSITIVE_LENGTH_MEASURE(0.1),#1467);
#1478 = DRAUGHTING_PRE_DEFINED_CURVE_FONT('continuous');
#1479 = MECHANICAL_DESIGN_GEOMETRIC_PRESENTATION_REPRESENTATION('',(
    #1480),#799);
#1480 = STYLED_ITEM('color',(#1481),#517);
#1481 = PRESENTATION_STYLE_ASSIGNMENT((#1482,#1487));
#1482 = SURFACE_STYLE_USAGE(.BOTH.,#1483);
#1483 = SURFACE_SIDE_STYLE('',(#1484));
#1484 = SURFACE_STYLE_FILL_AREA(#1485);
#1485 = FILL_AREA_STYLE('',(#1486));
#1486 = FILL_AREA_STYLE_COLOUR('',#1464);
#1487 = CURVE_STYLE('',#1488,POSITIVE_LENGTH_MEASURE(0.1),#1467);
#1488 = DRAUGHTING_PRE_DEFINED_CURVE_FONT('continuous');
ENDSEC;
END-ISO-10303-21;
