M48
;Layer_Color=9474304
;FILE_FORMAT=2:3
INCH,LZ
;TYPE=PLATED
T01F00S00C0.008
T02F00S00C0.024
%
T01
X-00346Y00276
X-00249Y00441
X-002Y00467
X-00311Y00527
X-00307Y0061
X-00244Y00642
X-00248Y00673
X-00063Y0067
X-00035Y00626
X00007Y00622
X-00024Y00559
X-00024Y00515
X00013Y00414
X-00039Y00375
X-00039Y00305
X-00009
X00024
X00055
X00089Y00305
X00146Y00331
X0022Y00322
X00193Y00484
X00398Y0048
Y00394
X00394Y0074
X00449Y00701
X00323Y00685
X00039Y00835
X-0001Y00828
X-00035Y00803
X-00079Y00807
X-00059Y0089
X-00285Y00878
X-00311Y0084
X-00335Y00803
X-00433Y00818
X-00031Y00248
X0002Y00915
X00012Y01016
X-00043Y0102
X00071
X00126Y01024
X00189Y01031
X-00331
X-00287Y00921
T02
X-00283Y01187
X-00224
X-00165
X-00106
X-00047
X00012
X00071
X0013
X00189
X00248
X00307
X00366
M30
